<svg width="143" height="23" viewBox="0 0 143 23" fill="none" xmlns="http://www.w3.org/2000/svg">
<path d="M46.7456 5.25481C46.6918 5.17053 46.4034 4.94333 46.2372 4.85905C46.2128 4.83707 46.159 4.81874 46.1053 4.81874C45.8902 4.73446 45.5676 4.65018 45.4307 4.6685C45.4063 4.6685 45.3769 4.6685 45.3476 4.6685C45.2156 4.6685 45.1863 4.6685 44.9957 4.66484C44.7806 4.66484 44.9126 4.84806 44.9126 4.84806C44.9126 4.84806 45.1227 5.09358 45.2596 5.15587C45.2889 5.15587 45.3134 5.17419 45.3427 5.19985C45.4209 5.30245 45.4991 5.48567 45.6556 5.6066C45.7387 5.68722 45.9244 5.7715 46.0857 5.83746C46.2226 5.87777 46.3301 5.89976 46.4621 5.92541C46.7847 5.9877 46.6039 5.76051 46.6625 5.62492C46.7456 5.48201 46.7749 5.3391 46.7505 5.25848" fill="white"/>
<path d="M49.5122 4.33507C49.3264 4.27277 49.2971 4.17383 49.1602 4.08588C49.0283 4.0016 48.8914 4.0639 48.7594 3.95763C48.6225 3.85136 48.383 3.77074 48.3293 3.77074C48.251 3.76341 48.0555 3.80739 47.728 3.84037C47.4005 3.85502 46.7748 3.92831 46.3691 3.90266C46.3153 3.90266 46.2322 3.90266 46.1247 3.90266C45.8803 3.89533 45.6065 3.91365 45.3621 3.93198C45.1715 3.94664 45.0102 3.96862 44.9271 3.96862C44.8733 3.96496 44.8196 3.96496 44.7658 3.98328C44.5996 4.00527 44.4089 4.01992 44.1939 4.03825C43.7295 4.08955 43.2162 4.14452 43.2162 4.14452C43.2162 4.14452 43.1331 4.14452 43.0256 4.1665C42.9181 4.15917 42.7567 4.18116 42.5905 4.19948C42.2924 4.21414 41.9404 4.25445 41.4467 4.34606C40.953 4.44134 40.2198 4.4963 39.9461 4.55127C39.7016 4.58791 39.6723 4.71251 39.6723 4.71251C39.6723 4.71251 39.3986 4.69052 39.2666 4.68685C39.1053 4.68685 39.1835 4.76747 39.1835 4.8884C39.1835 5.03131 39.2861 5.17423 39.4426 5.50403C39.5941 5.83016 39.6332 6.46411 39.6821 6.80857C39.6968 7.17502 39.7114 7.82729 39.6723 8.35497C39.6332 8.88632 39.6283 10.2312 39.6283 10.2715C39.6283 10.3081 39.5403 10.5536 39.5599 10.7185C39.5843 10.9018 39.5745 11.2645 39.5697 11.5321C39.5599 11.7959 39.5012 12.0414 39.6576 12.3895C39.8141 12.7413 40.1074 12.9465 40.2736 12.9282C40.4349 12.8879 40.4446 12.6021 40.4446 12.6021C40.4446 12.6021 40.9335 12.6717 41.261 12.6717C41.5885 12.6754 41.7791 12.6424 42.0235 12.6241C42.2142 12.6057 42.5123 12.5508 42.8398 12.4738C42.9474 12.4555 43.0843 12.4335 43.1918 12.4188C43.3824 12.4005 43.6806 12.3639 44.0081 12.3492C44.1988 12.3309 44.3894 12.3126 44.58 12.3126C44.7707 12.2979 44.9906 12.2759 45.1813 12.2613C45.2595 12.2613 45.3426 12.243 45.3964 12.2466C45.5039 12.2466 45.7239 12.2283 45.9389 12.21C46.4571 12.1953 47.0828 12.166 47.3272 12.166C47.6791 12.1513 48.036 12.0561 48.1435 11.9718C48.2804 11.9132 48.2022 11.8289 47.904 11.664C47.6351 11.5174 47.337 11.5724 47.0094 11.609C46.7113 11.6456 46.2713 11.6823 45.9487 11.7153C45.9194 11.7153 45.8949 11.7336 45.8949 11.7336C45.5674 11.7702 45.323 11.7446 45.323 11.7446C45.323 11.7446 45.323 11.6456 45.4403 11.4807C45.5234 11.3195 45.7483 11.0777 45.9732 10.6929C46.198 10.3118 46.4229 10.0883 46.4229 10.0883C46.6624 10.3155 47.0339 10.7259 47.249 10.8102C47.4934 10.8724 48.2168 11.2682 48.2168 11.2682C48.2168 11.2682 48.3488 11.3122 48.3488 11.4551C48.3488 11.6127 48.339 11.7592 48.3928 11.9022C48.4172 12.0634 48.3928 12.144 48.3341 12.188C48.2755 12.2503 48.251 12.2503 48.2217 12.3932C48.1924 12.5105 48.1631 12.6534 48.3781 12.679C48.5932 12.7193 48.7496 13.0052 48.9647 13.1151C49.1798 13.2397 49.2385 13.1151 49.3264 12.6717C49.4193 12.2063 49.3753 11.6347 49.3851 11.3305C49.3655 11.0483 49.3216 10.6599 49.4046 10.517C49.4633 10.3741 49.3558 10.2312 49.4144 10.0919C49.4486 9.92702 49.346 9.5789 49.3509 9.33338C49.3313 9.09153 49.3607 8.86799 49.3362 8.78371C49.3118 8.68477 49.3655 8.64446 49.346 8.45758C49.3215 8.27435 49.4926 8.0948 49.4144 7.9702C49.3362 7.84928 49.3704 7.46085 49.3998 7.27762C49.4584 7.07608 49.434 6.95149 49.4633 6.89652C49.4926 6.83422 49.4926 6.75361 49.4731 6.57038C49.4486 6.38716 49.4486 6.34685 49.4535 6.22226C49.4535 6.09767 49.4535 6.07935 49.4535 5.96208C49.4877 5.81917 49.4633 5.61396 49.4389 5.36844C49.4193 5.14491 49.5317 4.82244 49.5317 4.82244C49.5317 4.82244 49.5122 4.61723 49.6246 4.53661C49.7615 4.47798 49.7077 4.41568 49.522 4.3314M45.6065 9.74013C45.6065 9.74013 45.4012 10.2678 45.2057 10.6526C45.1177 10.7955 45.064 10.8981 45.0102 10.9787C44.8391 11.2169 44.7853 11.3232 44.7267 11.4404C44.668 11.5394 44.6338 11.8069 44.6338 11.8069L44.58 11.8289L44.5263 11.8472C44.5263 11.8472 44.3112 11.8619 44.0081 11.8802C43.6268 11.9168 43.138 11.9498 42.835 11.9681C42.2924 11.9828 41.828 12.0377 41.5347 12.0744C41.2316 12.111 41.1241 12.0707 40.9335 12.188C40.7428 12.3089 40.6597 12.3272 40.5522 12.2833C40.474 12.221 40.5277 12.1807 40.5522 12.1C40.5522 12.0377 40.6108 11.9608 40.5864 11.7959C40.562 11.6347 40.5131 11.4514 40.5131 11.4514C40.5131 11.4514 40.8357 11.5357 41.0263 11.6603C41.2121 11.7812 41.6471 11.7922 41.784 11.7519C41.8915 11.7116 42.2484 11.5724 42.4146 11.5137C42.4977 11.4954 42.6639 11.3745 42.8545 11.2572C43.0207 11.1143 43.2113 10.997 43.3531 10.8981C43.6024 10.7369 43.8468 10.6196 44.0423 10.5207C44.0961 10.5023 44.1499 10.462 44.2085 10.44C44.3454 10.3997 44.4823 10.3228 44.6191 10.2385C44.7267 10.1835 44.8684 10.1212 45.0004 10.0809C45.1128 10.0626 45.1666 10.0406 45.2204 10.0003C45.3035 9.91969 45.3328 9.82075 45.3035 9.74013C45.3035 9.69616 45.279 9.65585 45.2253 9.63387C45.0884 9.57157 44.8733 9.57157 44.6827 9.6302C44.6534 9.6302 44.624 9.6302 44.624 9.64852C44.4041 9.72548 44.1792 9.98565 44.0423 10.026C44.0423 10.0443 44.013 10.0443 44.013 10.0443C43.8517 10.0626 43.2456 10.3777 42.9425 10.5207C42.9181 10.5207 42.8838 10.5426 42.8594 10.5426C42.5563 10.6819 42.2582 10.8395 42.0626 10.8944C41.8182 10.9714 41.5152 11.1509 41.2414 11.1693C40.997 11.2059 40.8601 11.2242 40.6695 11.2206C40.4544 11.2206 40.4544 11.118 40.4544 11.118C40.4544 11.118 40.4446 10.3045 40.43 10.037C40.4349 9.79144 40.4349 9.77311 40.4104 9.67051C40.4104 9.5679 40.4446 9.46896 40.4446 9.40667C40.4691 9.36636 40.4446 8.9706 40.4006 8.857C40.3811 8.80203 40.3909 8.67378 40.4104 8.62614C40.4642 8.54552 40.4006 8.51621 40.4006 8.39528C40.4006 8.27069 40.4398 8.26702 40.4153 8.10579C40.3958 7.92257 40.4006 7.76133 40.4251 7.61842C40.4593 7.4755 40.4642 7.27029 40.4642 7.27029C40.4642 7.27029 40.474 6.82689 40.4837 6.47877C40.518 6.13065 40.6011 5.91078 40.5571 5.66526C40.5082 5.44173 40.3713 5.31714 40.3469 5.21454C40.3224 5.13392 40.1611 5.02765 40.1611 5.02765C40.1611 5.02765 40.1905 4.92871 40.3273 4.92871C40.4642 4.92871 40.8944 5.03498 41.1388 4.98001C41.4125 4.92504 41.5738 4.94337 41.7644 4.92871C41.9306 4.8884 42.4195 4.85175 42.527 4.8371C42.6345 4.81511 42.5514 4.87741 42.6834 4.96169C42.791 5.002 42.8985 5.12659 42.9767 5.25118C43.0256 5.3318 43.0794 5.43807 43.0794 5.47471C43.1282 5.62129 43.2113 5.67992 43.2113 5.67992C43.2113 5.67992 43.4802 5.92544 43.5291 6.05003C43.578 6.17096 43.578 6.23325 43.3873 6.31387C43.3042 6.32853 43.138 6.36884 42.9474 6.40915C42.6199 6.4861 42.2093 6.55939 42.0186 6.62169C41.7156 6.72063 41.476 6.65467 41.2561 6.651C41.041 6.651 40.9041 6.62535 40.821 6.62535C40.7379 6.64367 40.5522 6.66199 40.5522 6.66199C40.5522 6.66199 40.7868 6.96981 40.9481 7.05409C41.1339 7.13471 41.4076 7.30327 41.5152 7.30327C41.652 7.28129 41.6227 7.30327 41.6227 7.30327C41.6227 7.30327 42.048 7.73934 42.0382 8.12778C42.0284 8.53087 41.8524 9.16115 41.7107 9.36636C41.5738 9.54592 41.5689 9.58623 41.3245 9.58256C41.0508 9.58256 41.0557 9.49828 40.9432 9.55691C40.8357 9.61554 40.7526 9.74013 40.7722 9.98199C40.7917 10.2275 40.9579 10.1469 41.0361 10.2275C41.1192 10.3081 41.2756 10.3521 41.3881 10.3741C41.4956 10.3961 41.5738 10.4364 41.9062 10.2971C42.0431 10.2202 42.4537 10.0223 42.8692 9.78044C43.2553 9.56058 43.6415 9.32239 43.837 9.18314C43.9201 9.12451 43.9739 9.08786 44.057 9.02557C44.277 8.88632 44.4676 8.7434 44.6338 8.62614C44.7462 8.52354 44.8587 8.46857 44.8831 8.42826C44.9418 8.32566 44.9418 8.30367 44.9418 8.30367C44.9418 8.30367 45.0982 8.53086 45.2302 8.69576C45.2546 8.73607 45.2839 8.75806 45.3084 8.77272C45.4403 8.92296 45.6505 9.12451 45.6456 9.3517C45.6701 9.57523 45.5821 9.73647 45.5821 9.73647M42.5123 7.42054C42.4879 7.38023 42.3021 7.21166 42.4635 7.197C42.571 7.17868 42.7616 7.09806 42.9572 7.03943C42.9865 7.03943 43.0158 7.03943 43.0403 7.01745C43.2309 6.96248 43.3678 6.96248 43.4753 6.92217C43.5828 6.8672 43.9152 6.7646 43.9152 6.7646L44.0179 6.9295C44.0179 6.9295 44.0717 6.96614 44.1254 7.05043C44.2036 7.17135 44.3601 7.33625 44.4138 7.44252C44.5458 7.60742 44.6534 7.75034 44.624 7.80897C44.624 7.87126 44.5116 7.83095 44.4334 7.80897C44.4089 7.79065 44.2427 7.76499 44.1059 7.72102C44.0277 7.7027 43.9446 7.68071 43.8908 7.65873C43.7588 7.61109 43.6464 7.61109 43.6708 7.67338C43.6708 7.754 43.9592 8.02884 43.9837 8.18641C43.9837 8.35131 44.057 8.53086 44.0032 8.61148C43.9739 8.6921 43.7295 8.73241 43.534 8.85334C43.314 8.9706 43.1234 9.0329 43.0647 9.10985C43.0354 9.13184 42.9572 9.17214 42.8985 9.19047C42.791 9.22711 42.7079 9.24543 42.7079 9.24543C42.7079 9.24543 42.6003 9.32605 42.6003 9.28574C42.6003 9.22345 42.7176 8.9193 42.8838 8.79837C42.8838 8.78616 42.892 8.78005 42.9083 8.78005C43.0207 8.65912 42.9963 8.59683 43.0256 8.37696C43.0843 8.15343 43.1429 8.05082 43.1722 7.93356C43.2016 7.79065 43.1771 7.66605 43.0989 7.58544C43.0745 7.56345 43.0207 7.54146 42.9376 7.54146C42.7714 7.51948 42.5563 7.53413 42.5612 7.49749L42.5074 7.41687L42.5123 7.42054ZM48.4124 10.7552C48.3048 10.7552 47.904 10.4254 47.6351 10.2348C47.3712 10.0296 47.2881 9.96733 47.2881 9.96733C47.2881 9.96733 47.073 9.71815 46.8335 9.55325C46.6184 9.36636 46.6477 9.30406 46.6477 9.30406C46.6477 9.30406 46.9312 8.9193 46.9899 8.5785C47.0534 8.23038 47.161 8.19374 47.1659 8.01051C47.2001 7.84928 47.0388 7.74667 47.0388 7.74667C47.0388 7.74667 46.7406 7.57811 46.3935 7.47184C46.2567 7.40954 46.1198 7.39122 46.0416 7.36557C45.9292 7.34358 45.8754 7.34358 45.8754 7.34358C45.8754 7.34358 45.8216 7.3619 45.8754 7.4865C45.8998 7.61109 46.0025 7.83462 45.9976 8.10212C45.9878 8.36596 46.0367 8.64813 45.9292 8.60782C45.8216 8.54552 45.5088 7.9702 45.3524 7.76866C45.3279 7.72835 45.3035 7.68804 45.279 7.64407C45.1471 7.47917 45.0395 7.27396 44.9613 7.15303C44.8538 7.0321 44.9369 6.96981 44.8587 6.8672C44.7756 6.7646 44.6436 6.66199 44.756 6.62169C44.888 6.58138 45.0297 6.60336 45.1373 6.56672C45.1666 6.56672 45.2204 6.5484 45.3035 6.50442C45.4697 6.44946 45.6603 6.34685 45.6896 6.26623C45.7727 6.14531 45.6457 5.9401 45.5381 5.85581C45.4843 5.81551 45.4061 5.79352 45.323 5.77153C45.2399 5.77153 45.1568 5.77153 45.1031 5.78985C44.9124 5.80818 44.8342 5.72756 44.7218 5.84482V5.86314C44.5849 5.98407 44.3943 5.9401 44.3943 5.9401C44.3943 5.9401 44.2623 5.73489 44.1596 5.52968C44.1059 5.42707 44.0521 5.32813 44.0326 5.26217C43.9543 5.05696 43.8224 4.89206 43.7148 4.79312C43.7148 4.79312 43.5535 4.68685 43.7735 4.63189C43.8566 4.59524 44.0179 4.57692 44.1841 4.53295C44.3747 4.4963 44.5654 4.45599 44.756 4.44134C44.8635 4.41935 44.9466 4.40103 45.0297 4.38271C45.1373 4.38271 45.2497 4.36438 45.3572 4.36438C45.6554 4.32774 45.9536 4.31308 46.1198 4.27644H46.1442C46.3593 4.25445 46.5548 4.23979 46.6624 4.23979C46.7699 4.2178 47.0974 4.22513 47.3712 4.2288C47.64 4.2288 47.6694 4.29109 47.9089 4.35705C48.1533 4.40469 48.207 4.3827 48.2315 4.54761C48.2804 4.71251 48.2755 4.991 48.3488 5.19621C48.427 5.37944 48.4221 5.50403 48.4466 5.70924C48.471 5.89246 48.4368 6.13798 48.4563 6.40182C48.4759 6.66932 48.5394 7.62208 48.5003 8.01051C48.4661 8.39894 48.4759 9.15016 48.4661 9.56058C48.4808 9.97099 48.3781 9.94534 48.3977 10.2092C48.4172 10.4547 48.4172 10.4767 48.4417 10.5573C48.4417 10.6599 48.4955 10.7625 48.4124 10.7589" fill="white"/>
<path d="M55.994 7.74664C56.1651 7.83092 56.649 7.9775 56.8689 8.00315C57.0351 8.00315 57.0938 7.9775 57.2356 7.95918C57.2942 7.95918 57.348 7.93719 57.4066 7.91887C57.6559 7.87856 58.1692 7.84925 58.3061 7.82726C58.4478 7.78695 58.6433 7.80161 58.8291 7.72465C58.922 7.69167 59.1273 7.68801 59.1273 7.68801C59.1273 7.68801 59.2104 7.68801 59.577 7.64404C59.9436 7.60373 61.019 7.3692 61.2732 7.34721C61.4426 7.335 61.5648 7.28614 61.6398 7.20064C61.7229 7.05039 61.6691 6.9258 61.3856 6.69494C61.0777 6.43843 60.7648 6.607 60.5693 6.63265C60.4275 6.67662 59.4939 6.94779 59.3521 6.92947C59.2104 6.90748 59.2935 6.77922 59.3228 6.63265C59.3521 6.50806 59.3815 6.31384 59.3815 6.08298C59.4108 5.84845 59.4352 5.51132 59.4646 5.29879C59.4939 5.10823 59.269 4.9983 59.181 5.02395C59.0686 5.04594 58.9269 5.02395 58.8731 5.00197C58.8193 5.00197 58.7607 4.96166 58.6189 4.93967C58.5065 4.93967 58.4478 4.91768 58.3647 4.8334C58.2523 4.74912 58.1692 4.66484 57.9981 4.66484C57.8319 4.68316 57.6902 4.74912 57.5484 4.85172C57.436 4.93967 57.348 4.95799 57.2404 4.97998H57.1573C57.0156 5.00197 57.128 5.08625 57.128 5.08625C57.128 5.08625 57.1867 5.10823 57.2404 5.14854C57.3529 5.23283 57.5777 5.36108 57.6608 5.42338C57.8319 5.51132 58.0861 5.78249 58.1448 6.01702C58.1985 6.22589 58.4527 6.84519 58.4527 6.84519C58.4527 6.84519 58.4527 6.88549 58.5114 6.94779C58.5945 7.01375 58.5114 7.09803 58.2865 7.12002C58.0617 7.14201 57.9492 7.18231 57.7488 7.18231C57.6071 7.18231 57.4409 7.2043 57.2404 7.22262C57.0694 7.24461 56.9032 7.26293 56.7614 7.31057C56.5072 7.39119 56.1113 7.37287 55.8864 7.37287C55.6616 7.35088 55.7447 7.50112 55.7447 7.5854C55.7447 7.66969 55.8033 7.66602 55.9989 7.75397" fill="white"/>
<path d="M64.9783 11.008C64.8659 10.9017 64.6117 10.6928 64.2696 10.4766C63.9323 10.2458 63.5363 10.2678 63.4239 10.2897C63.3115 10.3301 62.9986 10.396 62.7445 10.4363C62.4854 10.4583 61.9526 10.5426 61.6691 10.5426C61.4149 10.5609 60.5399 10.6489 60.4226 10.6672C60.3395 10.6928 60.0266 10.7918 60.0266 10.7295C60.0022 10.6672 60.1097 10.5426 60.2808 10.3924C60.4812 10.2421 60.535 10.1358 60.7599 9.69244C60.9847 9.24904 61.0434 8.90825 60.8723 8.58944C60.7012 8.24865 60.2759 8.22666 60.1635 8.22666C60.0218 8.24865 59.6014 8.24865 59.401 8.22666C59.2299 8.22666 59.4596 8.39522 59.4596 8.39522C59.4596 8.39522 59.8849 8.77999 59.8849 8.8826C59.8849 8.97054 59.8018 9.24538 59.7725 9.52021C59.748 9.79138 59.4596 10.5389 59.3227 10.6855C59.2103 10.8284 59.2396 10.8284 58.7313 10.9164C58.4478 10.9787 57.739 11.0629 57.2306 11.1069C57.0302 11.1289 56.864 11.1289 56.7516 11.1289C56.385 11.1289 54.8598 11.3011 54.4639 11.3414C54.068 11.4037 53.0219 11.532 52.885 11.532C52.7726 11.532 52.885 11.9168 53.2223 12.0194C53.5645 12.1476 54.2146 12.2099 54.7181 12.1037C55.202 12.0194 56.077 11.8911 57.2355 11.6786C57.2648 11.6786 57.2648 11.6566 57.2942 11.6566C58.482 11.4477 59.269 11.4257 60.0609 11.3598C60.7696 11.3195 62.632 11.2315 63.2822 11.2315C63.9616 11.2498 64.2451 11.3598 64.3869 11.4001C64.5286 11.4477 64.6117 11.3598 64.8659 11.2975C65.1201 11.2095 65.0908 11.0849 64.9783 11.0007" fill="white"/>
<path d="M57.3235 8.84228C57.299 8.82396 57.2648 8.77999 57.2404 8.758C57.1573 8.65173 57.1279 8.52348 57.04 8.48317C56.9275 8.39522 56.8151 8.54546 56.8151 8.54546C56.8151 8.54546 56.6782 8.86427 56.6782 9.03283C56.6538 9.20506 56.5071 9.56418 56.5365 10.0296C56.5951 10.3667 56.9617 10.6012 57.2453 10.7112C57.3577 10.7515 57.4408 10.7918 57.4994 10.7918C57.6119 10.7918 57.9492 10.898 57.9492 10.7918C57.9492 10.6672 57.9198 10.4143 57.7243 10.2421C57.5239 10.0699 57.4163 9.65213 57.3821 9.4176C57.3821 9.20506 57.4701 8.9742 57.3235 8.84595" fill="white"/>
<path d="M72.7164 11.6347C72.8239 11.4112 73.0146 10.8212 73.1221 10.5757C73.1221 10.5354 73.1514 10.5134 73.1514 10.4951C73.2052 10.3522 73.2883 10.2349 73.1514 10.1726C73.1514 10.1543 73.1221 10.1543 73.1221 10.1286C72.9852 10.048 72.7946 9.86479 72.5795 9.70356C72.3351 9.49835 72.0369 9.64126 72.0125 9.68157C71.9587 9.74387 71.9294 9.86479 71.8463 9.9674C71.7387 10.0663 71.6556 10.0883 71.4943 10.0883C71.3575 10.1066 71.1962 10.1506 71.1424 10.1689H71.1131C71.1131 10.1689 71.1131 10.1066 71.1424 10.004C71.1424 9.92342 71.1424 9.82082 71.1668 9.69623C71.2206 9.4104 71.3575 8.21212 71.3575 8.21212C71.3575 8.21212 71.3575 8.08753 71.4112 8.01058C71.465 7.92996 71.817 7.94828 72.0369 7.90797C72.2569 7.86767 72.6039 7.88965 72.8532 7.76506C73.0977 7.62215 73.0194 7.37663 72.7701 7.19341C72.5551 7.01018 72.12 7.0908 71.9294 7.13111C71.7681 7.1531 71.5481 7.35464 71.465 7.35464C71.3819 7.35464 71.465 7.2557 71.4943 7.13111C71.5237 6.99186 71.5481 6.215 71.6312 5.83389C71.7143 5.46378 71.7143 4.99473 71.6605 4.87014C71.6312 4.73089 71.7436 4.54401 71.7143 4.48538C71.6605 4.44507 71.3575 4.36445 71.1717 4.32414H71.1473C70.9566 4.28383 70.986 4.24352 70.8491 4.24352C70.7122 4.2252 70.3065 4.18123 70.0914 4.18123C69.847 4.20321 69.8764 4.28383 69.8764 4.28383L70.0083 4.46705C70.0083 4.46705 70.067 4.56599 70.2821 4.69059C70.4972 4.8335 70.5509 5.60303 70.6047 6.07208C70.634 6.54113 70.6633 7.41327 70.634 7.53786C70.634 7.66246 69.6857 7.864 69.4071 7.9263C69.1138 7.98493 68.8645 7.88599 68.7325 7.88599C68.6005 7.88599 68.5663 7.98493 68.5957 8.08387C68.625 8.18647 68.8156 8.16815 68.8156 8.16815C68.8156 8.16815 68.8938 8.24877 68.9769 8.41C69.0307 8.55292 69.3289 8.75813 69.6026 8.79844C69.8764 8.82042 69.7933 8.79844 69.8764 8.73614C69.9595 8.67385 69.9839 8.63354 70.0914 8.59323C70.199 8.53093 70.4434 8.38802 70.5509 8.41C70.6633 8.43199 70.6633 8.71782 70.634 9.02563C70.6047 9.32612 70.4678 10.3045 70.4678 10.3045L70.3603 10.3851C70.2527 10.4474 70.0083 10.5904 69.9252 10.6087C69.8421 10.649 69.6271 10.5281 69.4902 10.4438C69.3827 10.3632 68.5908 10.1176 68.5908 10.1176C68.5908 10.1176 68.4539 10.2386 68.5614 10.3595C68.6739 10.5024 68.8889 10.605 69.1871 10.9934C69.4853 11.3599 69.7541 12.5398 69.7541 12.5398C69.7541 12.5398 69.7541 12.7414 69.9155 12.8843C70.0817 13.0272 70.1354 13.3534 70.2723 13.3937C70.4336 13.412 70.3798 13.3753 70.3798 13.2507C70.3798 13.1262 70.458 12.8843 70.458 12.8843C70.458 12.8843 70.59 12.844 70.81 12.8037C70.9175 12.8037 71.03 12.7634 71.1375 12.7194C71.245 12.6828 71.3526 12.6205 71.4357 12.5765C71.5677 12.5398 72.3302 12.4336 72.4964 12.4336C72.6577 12.4153 72.7653 12.3126 72.7653 12.3126C72.7653 12.3126 72.7897 12.254 72.6577 12.1514C72.5209 12.0268 72.5746 11.8656 72.7115 11.6201M71.9294 11.4515C71.9294 11.7996 71.9049 11.8802 71.9049 11.8802C71.9049 11.8802 71.4112 12.1258 71.1424 12.2284C71.1131 12.2284 71.0886 12.2284 71.0593 12.2467C70.8149 12.3273 70.4874 12.3859 70.4874 12.3859C70.4874 12.3859 70.4874 12.4043 70.4092 12.287C70.331 12.1844 70.2185 11.7337 70.2185 11.4295C70.2185 11.1034 70.1599 10.9421 70.1599 10.9421C70.1599 10.9421 70.8687 10.7589 71.0837 10.7186H71.1375C71.3281 10.6783 71.5432 10.7186 71.7094 10.6563C71.8414 10.594 72.0369 10.5134 72.0907 10.5757C72.1445 10.638 71.9001 11.1254 71.9294 11.4515Z" fill="white"/>
<path d="M73.8309 8.09117C74.1291 7.9336 74.2904 7.62578 74.2904 7.62578C74.2904 7.62578 74.5348 7.7064 74.7499 7.79068C74.9698 7.8713 75.1849 7.95192 75.4587 7.9739C75.6249 7.9739 75.7568 7.95192 75.923 7.9336C76.055 7.91161 76.1919 7.89329 76.407 7.8713C76.8176 7.809 77.1988 7.72839 77.5997 7.68808C78.0347 7.62578 78.1423 7.64777 78.3378 7.50485C78.5284 7.36194 78.3916 7.19704 78.1716 7.05413C77.9809 6.9332 77.8978 6.9332 77.7121 6.79395C77.5215 6.67302 77.4139 6.77196 77.3064 6.87457C77.1988 6.9955 76.842 7.17505 76.6514 7.23735C76.4901 7.27766 76.4314 7.27766 76.2701 7.31797C76.1626 7.33995 76.0257 7.35828 75.923 7.38026C75.8155 7.40225 75.708 7.40225 75.6786 7.42057C75.5955 7.43889 75.488 7.46088 75.2973 7.46088C75.1067 7.46088 74.4028 7.50119 74.4028 7.50119C74.4028 7.50119 74.4273 7.46088 74.5592 7.23369C74.6961 7.03214 75.1067 6.40185 75.2142 6.13435C75.3218 5.8925 75.5124 5.46376 75.6493 4.91042C75.7862 4.36442 75.488 4.09691 74.9698 3.77444C74.4859 3.47029 73.8016 3.408 73.8016 3.408C73.8016 3.47029 73.8847 3.73413 74.1291 3.99797C74.349 4.26548 74.4859 4.54764 74.4859 4.63192C74.4859 4.71621 74.5104 4.81515 74.4859 4.95806C74.4859 5.07899 74.4273 5.36848 74.349 5.93647C74.3197 6.0574 74.1584 6.58874 74.1046 6.79395C74.0509 6.9955 73.9678 7.19704 73.8847 7.46455C73.7771 7.79068 73.5865 7.97757 73.5327 8.09483C73.4545 8.21942 73.4007 8.36234 73.4007 8.36234C73.4007 8.36234 73.5327 8.24141 73.8358 8.09483" fill="white"/>
<path d="M81.3 12.188C80.7525 12.1697 80.0241 12.0451 78.4746 11.4918C76.925 10.9458 76.0549 10.2532 76.0549 10.2532C76.3531 9.78416 76.4069 8.97431 76.4069 8.7691C76.3776 8.62619 76.2163 8.46129 75.923 8.35868C75.8692 8.34036 75.8154 8.31837 75.7323 8.29639C75.3217 8.21577 75.0773 8.3367 75.0773 8.3367C75.0773 8.3367 75.0773 8.41732 75.268 8.49793C75.4586 8.57855 75.4586 8.68116 75.4879 8.96698C75.5417 9.27113 75.4048 9.69987 75.4048 9.7585C75.4048 9.79881 74.696 9.20884 74.6423 9.12822C74.5934 9.0476 74.5103 8.96698 74.1828 8.92667C73.8553 8.86438 73.6402 8.80208 73.4496 8.86438C73.2882 8.92667 73.4496 8.945 73.4496 8.945C73.4496 8.945 73.694 9.1099 73.9921 9.30778C74.261 9.51299 75.268 10.4291 75.268 10.4291C75.1066 10.9385 74.8622 11.2646 74.2903 11.8546C73.8797 12.3016 73.3371 12.4849 73.122 12.5472C73.0389 12.5655 73.0145 12.5838 73.0145 12.5838C73.0145 12.5838 73.0145 12.6461 73.122 12.6461C73.1514 12.6644 73.1758 12.6644 73.2296 12.6644C73.4496 12.6461 73.9335 12.4629 74.5347 12.1367C75.1311 11.8106 75.7568 10.9348 75.7568 10.9348C75.7568 10.9348 75.8105 10.9568 75.923 11.0374C75.9767 11.0777 76.0794 11.1583 76.1918 11.2389C76.49 11.5064 77.5752 12.3383 78.064 12.6461C78.5577 12.9722 79.1198 12.9502 79.7748 12.8476C80.4494 12.745 81.2413 12.4372 81.4319 12.32C81.5932 12.177 81.2951 12.177 81.2951 12.177" fill="white"/>
<path d="M93.3737 10.081C93.1732 9.95272 92.9826 9.93073 92.7577 9.79881C92.5378 9.67056 92.3423 9.5423 92.1174 9.62659C91.917 9.72919 91.9708 9.87577 91.9708 9.87577C91.9708 9.87577 91.0958 10.0077 90.4163 10.125C90.079 10.1872 89.6 10.2422 89.1796 10.2789C88.7592 10.2935 88.3926 10.3118 88.1971 10.3118C87.8305 10.3045 87.7963 10.4328 87.9136 10.4731C88.0211 10.4951 88.0798 10.6013 88.3584 10.6893C88.5539 10.7552 88.8032 10.8432 89.1698 10.8285C89.2774 10.8285 89.4191 10.8102 89.5902 10.7699C90.2403 10.6306 91.9219 10.5244 91.9219 10.5244C91.9219 10.5244 91.9463 10.5683 91.8877 10.9238C91.8192 11.2829 91.6872 12.1441 91.6872 12.1441C91.6872 12.1441 90.954 12.2613 90.5874 12.276C90.387 12.2943 89.7124 12.3896 89.121 12.4665C88.5882 12.5215 88.1335 12.5801 88.1335 12.5801C88.1335 12.5801 88.1335 12.5618 88.0553 12.3273C88.0065 12.0928 87.7669 11.3525 87.6643 11.0374C87.5567 10.7223 87.3661 10.4657 86.9799 10.3558C86.5889 10.2239 86.1978 10.1359 86.1441 10.092C86.061 10.07 86.0561 10.2385 86.0561 10.2385C86.0561 10.2385 86.4129 10.561 86.5498 10.7699C86.6866 10.9641 87.1168 11.7483 87.1657 11.9792C87.2488 12.2137 87.4101 12.5105 87.4541 12.8476C87.503 13.1628 88.0016 13.5879 88.114 13.4853C88.2557 13.3826 88.1873 13.1005 88.1824 13.0858C88.1824 13.0895 88.2313 13.0932 88.6321 13.0309C88.7446 13.0309 88.9157 13.0089 89.1112 12.9942C89.8688 12.9173 91.1056 12.8293 91.5308 12.8147C92.0343 12.8 92.4889 12.6754 92.7138 12.5801C92.9142 12.4739 92.5818 12.2613 92.5818 12.2613C92.5818 12.2613 92.4987 12.2174 92.6502 11.8619C92.7675 11.5284 93.183 10.7113 93.3003 10.5647C93.4177 10.3961 93.5887 10.2312 93.3688 10.081" fill="white"/>
<path d="M85.2105 5.99873C84.9368 5.67992 84.3258 5.44173 84.3258 5.44173C84.2378 5.50403 84.2916 5.62862 84.3991 5.90346C84.5311 6.17829 84.4235 7.208 84.4186 7.42054C84.4431 7.6514 84.1205 8.09113 84.1205 8.23771C84.0911 8.38429 84.5555 8.76906 84.751 8.83502C84.9221 8.87899 85.147 8.7544 85.2105 8.54919C85.2447 8.31833 85.2496 8.06548 85.3181 7.55979C85.4109 7.05776 85.4843 6.46778 85.4256 6.29922C85.4061 6.13065 85.2105 5.99873 85.2105 5.99873Z" fill="white"/>
<path d="M94.6251 5.44905C94.2634 5.25484 93.7355 5.14124 93.6231 5.14124C93.54 5.14124 93.452 5.26583 93.3347 5.32446C93.1929 5.40508 92.7481 5.37943 91.8731 5.45272C91.003 5.52601 89.7028 5.61762 89.7028 5.61762C89.7028 5.61762 89.6197 5.63594 89.5952 5.56998C89.5708 5.50768 89.5463 5.29881 89.5512 5.13024C89.5512 4.93969 89.5268 4.91404 89.6148 4.75281C89.6734 4.58424 89.9276 4.45965 89.7956 4.22879C89.6637 3.99426 89.5806 3.86601 89.3508 3.84036C89.3508 3.84036 89.3427 3.83425 89.3264 3.82204C89.1015 3.79638 89.0184 3.79638 89.0184 3.79638C88.8278 3.58018 88.4074 3.55453 88.207 3.67912C88.031 3.8257 87.6742 3.6095 87.6448 3.71577C87.5862 3.82204 87.7182 4.14084 87.7182 4.14084C87.7182 4.14084 87.7719 4.26543 87.8795 4.33139C87.987 4.39369 88.2999 4.41934 88.3781 4.56958C88.4856 4.69784 88.642 5.3721 88.6616 5.56265C88.686 5.77152 88.4661 5.72389 88.207 5.76786C87.9528 5.78252 87.112 5.92177 86.8872 5.9181C86.6917 5.93642 86.2957 5.87046 86.0464 5.8668C85.8264 5.8668 85.9535 6.09766 86.1197 6.20393C86.3153 6.3102 86.677 6.63267 86.897 6.57404C87.1511 6.51174 87.3516 6.45311 87.9968 6.33585C88.6176 6.1966 88.9842 6.14163 88.9842 6.14163C88.9842 6.14163 88.9842 6.22225 89.0673 6.3102C89.1162 6.39082 89.1797 6.3102 89.2628 6.2479L89.2922 6.22958C89.4339 6.14896 89.3215 6.16728 89.4681 6.12698C89.6099 6.06468 89.7223 6.02437 90.0889 5.96574C90.4507 5.92543 90.9004 5.93276 91.4918 5.94009C92.0833 5.94742 93.4862 5.90344 93.4862 5.90344C93.4862 5.90344 93.4862 6.07567 93.364 6.42746C93.2662 6.8049 92.8165 7.0321 92.8165 7.0321C92.8165 7.0321 92.8165 7.09806 92.929 7.07607C93.0414 7.07607 93.0463 6.99179 93.5498 6.85254C94.0288 6.73161 94.5665 6.53007 94.9429 6.21859C95.0602 6.13797 95.114 6.05002 95.1188 5.98773V5.92543C95.1188 5.75687 94.8744 5.58097 94.6251 5.45638" fill="white"/>
<path d="M89.2138 8.95592C88.989 8.97424 88.7641 9.01088 88.7104 8.9889C88.6566 8.94492 88.5735 8.77636 88.5784 8.6481C88.5784 8.50519 88.5637 8.06179 88.5686 7.89323C88.5442 7.72466 88.6028 7.62206 88.2411 7.42784C87.8501 7.21164 87.1022 7.03574 86.9848 7.09438C86.8724 7.17499 86.9848 7.28493 86.9848 7.28493C87.239 7.31058 87.3417 7.51945 87.5617 7.79795C87.7523 8.05446 87.9576 9.06952 87.9771 9.23442C88.0016 9.40298 88.3291 9.83172 88.4122 9.87203C88.4953 9.91234 88.5539 9.79141 88.5539 9.66316C88.5539 9.53857 88.6957 9.52024 89.0379 9.47993C89.0672 9.47993 89.121 9.46161 89.2041 9.46161C89.6245 9.40298 90.387 9.31137 90.5532 9.31137C90.7487 9.33336 90.8269 9.41764 90.9149 9.44329C90.998 9.46528 91.2815 9.46894 91.3402 9.34068C91.3646 9.23808 91.3402 9.1538 91.3793 8.87896C91.3793 8.62612 91.3891 8.31097 91.4233 8.2047C91.4575 7.84559 91.4673 7.42784 91.5553 7.21897C91.6482 6.98811 91.3989 6.79389 91.1496 6.68762C90.8954 6.58135 90.2746 6.61433 90.0791 6.69495C89.9666 6.75725 89.6 6.8342 89.2578 6.91482C89.033 6.97711 88.8081 7.01376 88.725 7.05407C88.5588 7.09438 88.2998 7.25928 88.4122 7.25928C88.5539 7.24095 88.8032 7.3912 89.0819 7.43517C89.1356 7.43517 89.1894 7.43517 89.2481 7.43517C89.556 7.46082 90.0351 7.40219 90.2599 7.38387C90.5141 7.34356 90.4506 7.44983 90.4701 7.83093C90.519 8.20837 90.5043 8.75437 90.5043 8.75437C90.5043 8.75437 89.9715 8.85331 89.688 8.89362C89.5756 8.89362 89.38 8.93027 89.209 8.94859" fill="white"/>
<path d="M107.139 4.53301C107.246 4.5953 107.383 4.67226 107.491 4.77486C107.598 4.83716 107.711 4.89579 107.789 4.93976C108.009 5.0387 108.117 4.91411 108.117 4.79685C108.087 4.65027 108.117 4.41208 108.117 4.26917C108.141 4.10427 108.009 4.02365 107.848 3.98334C107.682 3.9467 107.735 4.00166 107.491 3.9467C107.491 3.9467 107.466 3.9467 107.466 3.92471C107.193 3.86608 106.973 3.8844 106.895 3.96502C106.841 4.04564 106.895 4.18855 106.895 4.18855C106.895 4.18855 106.948 4.43407 107.139 4.53667" fill="white"/>
<path d="M102.74 7.12011C102.823 7.03949 102.632 6.87826 102.441 6.75367C102.358 6.69137 102.275 6.65106 102.197 6.61075C102.006 6.50815 101.791 6.61075 101.63 6.69137C101.498 6.79397 101.254 6.8123 101.254 6.8123C101.2 6.70969 101.337 6.24064 101.337 5.98047C101.307 5.73128 101.229 5.14131 101.009 4.99839C100.789 4.85914 99.8702 4.73455 99.7871 4.81517C99.704 4.89579 99.9484 5.05702 99.9484 5.05702C99.9484 5.05702 99.8946 5.11932 100.168 5.50775C100.437 5.89618 100.491 7.11645 100.491 7.11645C100.491 7.11645 99.5671 7.39861 99.2152 7.54152C98.8632 7.70642 98.7801 7.82735 98.8388 7.91163C98.8925 7.97393 99.2983 7.94828 99.7333 7.91163C100.168 7.84934 100.491 7.74673 100.491 7.74673C100.491 7.74673 100.545 8.04722 100.52 8.49794C100.491 8.94867 100.491 11.1657 100.545 11.6127C100.628 12.0818 100.765 12.4885 100.897 12.5875C101.034 12.6901 101.141 12.4043 101.195 12.0195C101.278 11.6091 101.166 11.0228 101.195 10.4914C101.249 9.9454 101.278 9.45437 101.219 8.68117C101.195 7.92995 101.302 7.54152 101.302 7.54152C101.302 7.54152 101.522 7.47923 101.899 7.39861C102.089 7.3583 102.275 7.31799 102.441 7.27402C102.578 7.23371 102.715 7.17141 102.74 7.11278" fill="white"/>
<path d="M109.661 9.06959C109.363 8.82774 108.982 8.94867 108.63 9.06959C108.385 9.13189 107.843 9.21251 107.486 9.25281C107.3 9.29312 107.134 9.29312 107.134 9.29312C107.134 9.29312 107.08 9.25281 107.051 9.15021C107.051 9.05127 106.777 8.90469 106.67 8.88637C106.533 8.84606 106.533 8.78376 106.533 8.78376H106.753C106.836 8.78376 106.89 8.84606 107.027 8.80209C107.163 8.76178 107.349 8.59688 107.486 8.1718C107.515 8.13149 107.515 8.08752 107.54 8.04721C107.672 7.51953 107.862 6.7903 107.975 6.64372C108.058 6.50081 108.165 6.37988 107.975 6.17468C107.897 6.07574 107.677 5.99145 107.486 5.97313C107.349 5.92916 107.242 5.92916 107.242 5.92916C107.242 5.92916 107.159 5.78624 106.997 5.84854C106.89 5.87053 106.455 5.92916 106.103 5.99145C105.78 6.05008 105.477 6.09039 105.477 6.09039L105.423 5.17428C105.423 5.17428 105.34 5.19627 105.531 5.09366C105.668 5.03137 105.907 4.99106 106.098 4.95075C106.181 4.93243 106.264 4.93243 106.318 4.91044C106.479 4.89212 106.694 4.73088 106.694 4.73088C106.611 4.38642 106.42 4.30214 106.205 4.22152H106.098C105.829 4.22152 105.448 4.36444 105.448 4.36444C105.448 4.36444 105.477 4.32413 105.448 4.18121C105.418 4.06029 105.418 3.89905 105.448 3.69384C105.477 3.4923 105.394 3.30541 104.983 3.1625C104.846 3.1002 104.714 3.08188 104.548 3.08188C104.25 3.08188 103.976 3.1625 103.923 3.24311C103.839 3.34572 104.03 3.48863 104.275 3.71216C104.441 3.8734 104.519 4.18121 104.548 4.40475C104.578 4.52934 104.578 4.60995 104.578 4.60995L104.548 4.62828C104.441 4.6466 103.952 4.7492 103.786 4.85181C103.571 4.99106 102.974 5.03503 102.784 5.07534C102.593 5.11565 102.808 5.25856 102.808 5.25856C102.808 5.25856 103.028 5.40148 103.214 5.44178C103.375 5.50408 103.918 5.46377 104.167 5.40148C104.328 5.36117 104.465 5.33918 104.543 5.32086H104.597C104.597 5.32086 104.597 5.36117 104.651 5.56638C104.68 5.78991 104.758 6.25529 104.758 6.25529C104.758 6.25529 104.675 6.27728 104.538 6.31759C104.265 6.39821 103.805 6.5228 103.668 6.54112C103.483 6.56311 103.639 6.64372 103.751 6.64372C103.888 6.64372 104.216 6.66571 104.406 6.68403H104.538C104.675 6.66205 104.758 6.64372 104.758 6.64372L104.866 7.33264C104.866 7.33264 104.837 7.41326 104.783 7.41326C104.729 7.41326 104.646 7.43158 104.538 7.45357C104.377 7.51586 104.162 7.5745 104.103 7.5745C104.02 7.5745 104.05 7.32898 104.05 7.18606C104.05 7.02483 103.967 6.92222 103.722 6.82328C103.478 6.69869 103.209 6.55944 103.072 6.53746C102.93 6.53746 102.876 6.78297 103.072 7.04315C103.258 7.31066 103.639 8.59321 103.776 8.85705C103.883 9.12089 103.913 9.14288 103.996 9.10257C104.079 9.08059 104.103 8.97798 104.103 8.97798C104.103 8.97798 104.157 8.94134 104.538 8.94134H104.622C105.057 8.92301 105.79 8.90103 105.79 8.90103C105.79 8.90103 105.985 9.12456 106.005 9.18319C106.034 9.20518 106.059 9.24549 106.088 9.28946C106.142 9.37008 106.196 9.4507 106.196 9.4507H106.088C105.897 9.46902 105.492 9.51299 104.866 9.59361C104.758 9.59361 104.646 9.61193 104.538 9.63392C103.751 9.75851 102.72 9.94173 102.422 10.004C102.368 10.026 102.339 10.026 102.339 10.026C102.339 10.026 101.928 10.0883 102.177 10.2495C102.285 10.3082 102.339 10.3302 102.422 10.3485C102.583 10.3888 102.749 10.3668 102.935 10.3888C103.233 10.3888 103.37 10.3888 103.722 10.3302C103.859 10.3082 104.187 10.2679 104.538 10.2092C105.027 10.1286 105.57 10.048 105.873 10.0077C105.951 9.98937 106.034 9.98937 106.088 9.96738C106.386 9.92707 106.411 9.92707 106.411 9.92707C106.518 10.5977 106.548 12.2906 106.548 12.2906C106.548 12.2906 106.303 12.309 106.088 12.3493C105.927 12.3676 105.79 12.4079 105.736 12.4299C105.57 12.4922 105.785 12.756 106.059 12.877L106.083 12.8953C106.303 13.0382 106.303 13.5072 106.328 13.5476C106.381 13.5842 106.684 13.6465 106.709 13.6868C106.748 13.7125 106.777 13.6758 106.953 13.4633C107.173 13.1994 107.31 12.4446 107.31 11.7336C107.335 11.0227 107.144 10.026 107.144 9.92341C107.144 9.84279 107.281 9.8208 107.466 9.8208H109.529C109.886 9.84279 110.023 9.8208 110.155 9.74019C110.287 9.67789 109.94 9.31145 109.637 9.06959M104.959 8.5639C104.959 8.5639 104.773 8.60421 104.553 8.64452C104.392 8.68482 104.201 8.72513 104.147 8.76911C104.147 8.76911 104.231 8.34037 104.177 8.13882C104.123 7.9556 104.147 7.81269 104.147 7.81269C104.147 7.81269 104.338 7.81269 104.553 7.79436C104.69 7.79436 104.798 7.79436 104.905 7.75405C104.959 7.73573 104.905 8.03988 104.934 8.16081C104.983 8.30006 104.959 8.56756 104.959 8.56756M106.132 8.42098H106.103C105.78 8.46129 105.506 8.48328 105.506 8.48328C105.506 8.48328 105.399 7.73207 105.506 7.66977C105.614 7.62946 105.858 7.60748 106.103 7.54518C106.156 7.54518 106.24 7.50487 106.288 7.48288C106.396 7.42059 106.21 7.33997 106.103 7.25935C106.078 7.23737 106.049 7.21538 106.02 7.21538C105.941 7.13476 105.858 7.15675 105.697 7.17507C105.536 7.19706 105.399 7.25935 105.423 7.23737C105.453 7.09445 105.423 6.69136 105.477 6.58876C105.477 6.58876 105.8 6.50814 106.103 6.44584C106.21 6.42752 106.323 6.40554 106.401 6.40554C106.621 6.36523 106.782 6.44584 106.782 6.44584C106.782 6.44584 106.699 6.70969 106.699 6.99551C106.67 7.25935 106.753 8.21578 106.67 8.35869C106.67 8.35869 106.455 8.37701 106.127 8.42098" fill="white"/>
<path d="M104.851 10.8212C104.773 10.8028 104.666 10.7809 104.553 10.7406C104.338 10.7002 104.094 10.6379 103.957 10.6379C103.737 10.616 103.82 10.7589 103.82 10.7589C103.82 10.7589 104.011 11.085 104.148 11.2719C104.231 11.3708 104.392 11.5138 104.553 11.6347C104.69 11.7153 104.827 11.7959 104.905 11.8399C105.096 11.9022 105.179 11.8216 105.233 11.719C105.316 11.6164 105.286 11.3928 105.262 11.2316C105.233 11.0484 105.071 10.8835 104.851 10.8212Z" fill="white"/>
<path d="M118.87 7.19339C119.012 7.0688 118.87 6.96619 118.763 6.86359C118.763 6.8416 118.738 6.8416 118.738 6.81961C118.602 6.71334 118.323 6.50813 118.157 6.48981C117.986 6.46782 117.986 6.63273 117.824 6.71334C117.687 6.77564 117.771 6.29926 117.795 5.84487C117.824 5.38315 117.932 4.69789 117.878 4.41207C117.849 4.10059 117.741 4.01631 117.409 3.87339C117.076 3.70849 116.881 3.64253 116.798 3.60222C116.72 3.58024 116.275 3.4813 116.133 3.45931C115.967 3.45931 116.275 3.87339 116.358 4.0786C116.441 4.28748 116.72 4.41207 116.744 4.66125C116.798 4.91043 116.832 6.11237 116.886 6.59242C116.94 7.0688 116.832 7.13109 116.832 7.13109C116.832 7.13109 116.778 7.14941 116.607 7.19339C116.446 7.25568 115.889 7.52685 115.889 7.52685C115.889 7.52685 115.864 7.46456 115.918 7.15308C115.947 6.8416 116.192 6.6767 116.28 6.57409C116.329 6.4495 116.25 6.11237 116.001 6.03175C115.722 5.96946 115.639 5.86686 115.449 5.76059C115.253 5.65798 114.808 5.49675 114.755 5.57736C114.725 5.65798 114.755 5.76059 114.755 5.76059C114.755 5.76059 114.896 6.03176 115.033 6.20032C115.17 6.34323 115.307 6.65471 115.224 7.02849C115.17 7.38027 114.921 7.59281 114.808 7.77603C114.701 7.96292 114.808 8.23776 114.95 8.27806C115.058 8.31837 115.366 8.50526 115.61 8.35868C115.83 8.2121 116.304 7.92261 116.553 7.82001C116.778 7.71374 116.915 7.71374 116.915 7.71374C116.944 7.82001 116.998 8.98164 116.998 8.98164C116.998 8.98164 116.837 9.14654 116.529 9.33343C116.226 9.51665 115.478 10.081 115.199 10.3082C114.926 10.5354 114.564 10.4914 114.451 10.4511C114.31 10.3888 114.148 10.4511 114.232 10.66C114.339 10.8872 114.784 11.1547 115.062 11.1766C115.307 11.1766 115.507 11.0117 115.947 10.5134C116.392 10.015 116.998 9.53864 116.998 9.53864C116.998 9.53864 116.998 9.76583 117.023 10.0993C117.052 10.4328 117.023 11.074 116.998 11.3892C116.998 11.7007 116.915 12.2393 116.915 12.2393C116.915 12.2393 116.583 12.2393 116.47 12.2833C116.363 12.3456 116.47 12.5508 116.607 12.6754C116.749 12.8 117.076 13.2141 117.135 13.2984C117.164 13.3826 117.277 13.3607 117.384 13.2984C117.492 13.2141 117.492 13.0309 117.604 12.8806C117.746 12.7194 117.771 12.4885 117.712 12.3639C117.629 12.2137 117.712 12.1147 117.687 11.6347C117.629 11.1547 117.575 8.78742 117.575 8.78742L117.741 8.49793L117.575 8.51992C117.575 8.51992 117.629 7.62579 117.712 7.46089C117.771 7.274 117.878 7.35462 118.127 7.31431C118.294 7.29599 118.543 7.31431 118.738 7.274C118.792 7.25568 118.846 7.2337 118.875 7.18972" fill="white"/>
<path d="M125.768 7.38026C125.655 7.29964 125.548 7.13108 125.323 7.02847C125.103 6.92587 124.878 6.94785 124.658 7.02847C124.438 7.09077 124.409 7.05046 124.047 7.06878C123.661 7.11275 122.414 7.09077 122.106 7.13108C121.779 7.15306 121.363 7.19337 121.055 7.23734C120.752 7.27765 120.361 7.13108 120.361 7.13108C120.474 7.00648 121.222 5.92914 121.388 5.61399C121.525 5.30251 121.495 5.13761 121.554 4.92874C121.637 4.72353 121.471 4.59527 121.334 4.51466C121.192 4.43037 121.251 4.43037 121.114 4.3864C120.948 4.34609 120.894 4.32411 120.562 4.20318C120.254 4.09691 120.034 4.07492 119.902 4.1189C119.784 4.14088 119.985 4.24349 119.985 4.24349C119.985 4.24349 120.122 4.36808 120.259 4.61726C120.43 4.84446 120.176 5.46741 120.009 5.90715C119.868 6.32123 119.237 7.46454 119.071 7.81633C118.988 7.98123 118.846 8.1901 118.738 8.33668C118.602 8.50158 118.518 8.60785 118.518 8.60785C118.518 8.60785 118.577 8.64816 118.738 8.54555C118.9 8.46127 119.129 8.27805 119.433 8.04719C119.736 7.79801 120.151 7.33995 120.151 7.33995C120.151 7.33995 120.259 7.48286 120.405 7.56715C120.513 7.67341 120.787 7.8603 120.899 7.98489C121.011 8.0875 120.679 8.79107 120.097 9.68886C119.545 10.583 119.1 11.1217 119.046 11.184C119.022 11.2243 118.826 11.3305 119.022 11.3122C119.242 11.3122 119.55 10.9787 119.794 10.7076C120.048 10.4584 120.791 9.63023 121.153 9.25646C121.515 8.88268 121.764 8.32202 121.847 8.19743C121.93 8.07284 121.652 7.86397 121.652 7.86397C121.652 7.86397 121.569 7.82366 121.676 7.77968C121.759 7.73937 122.37 7.69907 122.37 7.69907C122.37 7.69907 122.37 7.77968 122.424 8.15712C122.478 8.55288 122.009 9.23447 121.842 9.54961C121.676 9.86109 121.148 10.6306 120.928 10.8981C120.679 11.1656 120.288 11.73 120.176 11.8106C120.039 11.8729 119.956 12.0414 119.956 12.0414C119.956 12.0414 119.985 12.0634 120.454 11.8509C120.923 11.6457 121.559 11.0007 122.253 10.1286C122.942 9.23447 123.138 8.75809 123.108 8.366C123.084 7.99222 122.497 7.72105 122.497 7.72105C122.497 7.72105 122.805 7.68074 123.358 7.68074C123.939 7.68074 124.658 7.64043 124.658 7.64043C124.658 7.64043 124.712 7.60013 124.741 7.86763C124.741 8.1388 124.604 8.90467 124.35 9.44335C124.101 10.0077 123.744 10.5244 123.578 10.7516C123.407 10.9568 123.187 11.3122 122.967 11.3122C122.771 11.3122 122.634 11.2059 122.493 11.2059C122.326 11.2059 122.439 11.4112 122.522 11.5174C122.634 11.6237 122.581 11.9095 122.605 12.0781C122.634 12.243 122.581 12.3053 122.967 12.221C123.382 12.1404 123.935 11.5797 124.521 10.7699C125.127 9.9637 125.768 8.06918 125.904 7.77968C126.071 7.47187 125.846 7.44988 125.763 7.38392" fill="white"/>
<path d="M136.634 7.08346C136.58 7.12377 136.448 7.16407 136.292 7.20438C136.023 7.26668 135.705 7.32531 135.652 7.3473C135.52 7.38394 135.148 7.26668 134.933 7.30332C134.723 7.3473 134.962 7.58182 134.962 7.58182C135.094 7.58182 135.251 7.7797 135.329 7.90429C135.412 8.04354 135.622 7.98125 135.676 7.86398C135.759 7.72474 135.969 7.70641 136.18 7.60381C136.209 7.58549 136.233 7.58549 136.287 7.56716C136.473 7.50853 136.659 7.50853 136.869 7.46822C137.113 7.42791 137.455 7.30699 137.563 7.36562C137.67 7.42792 137.749 7.08712 137.67 7.02849C137.563 6.94787 137.138 6.88924 137.001 6.88924C136.839 6.88924 136.761 7.02849 136.629 7.08712" fill="white"/>
<path d="M135.598 5.84855C135.353 5.88519 134.801 5.83023 134.801 5.83023C134.962 6.05009 135.089 6.28828 135.358 6.31027C135.544 6.31027 135.915 6.20767 136.292 6.08674C136.424 6.05009 136.58 6.00612 136.717 5.96581C137.196 5.84855 138.633 5.72762 138.633 5.72762C138.633 5.72762 138.633 5.90352 138.555 6.22599C138.477 6.52647 138.316 6.60343 138.369 6.60343C138.423 6.60343 139.01 6.50815 139.435 6.22599C139.865 5.9255 140.046 5.82656 139.992 5.62868C139.963 5.40881 139.704 5.47111 139.591 5.42714C139.459 5.40515 139.347 5.30255 139.166 5.20727C138.956 5.12665 138.663 5.02771 138.609 5.14497C138.531 5.28422 138.34 5.36484 138.34 5.36484C137.944 5.32453 136.585 5.64334 136.585 5.64334C136.585 5.64334 136.561 5.2659 136.585 4.82983C136.614 4.41208 136.693 4.3278 136.746 4.14824C136.771 3.99067 136.561 3.95036 136.297 3.87341C136.214 3.85142 136.16 3.8331 136.106 3.81111C135.764 3.69019 135.764 3.7708 135.764 3.7708C135.764 3.7708 135.603 3.70851 135.471 3.7305C135.334 3.74882 135.124 3.70851 134.992 3.69385C134.86 3.67553 134.938 3.81478 135.099 3.95036C135.26 4.07129 135.153 4.21054 135.339 4.30948C135.524 4.3901 135.583 4.55133 135.583 4.55133C135.632 4.69058 135.901 5.70563 135.901 5.70563C135.901 5.70563 135.823 5.80824 135.612 5.84855" fill="white"/>
<path d="M133.334 7.1824C133.334 7.1824 133.334 7.2447 133.388 7.32165C133.388 7.3583 133.442 7.42059 133.496 7.50488C133.657 7.68443 134.029 7.96293 134.029 7.96293C134.029 7.96293 134.082 7.94095 134.19 7.77971C134.297 7.64046 134.351 7.53786 134.4 7.32165C134.429 7.10545 134.429 6.8636 134.454 6.44585C134.503 6.0281 134.161 5.9255 133.999 5.82656C133.814 5.70196 133.598 5.70197 133.598 5.70197C133.598 5.70197 133.598 5.76426 133.652 6.08307C133.73 6.40188 133.628 6.58143 133.598 6.88558C133.574 7.10545 133.437 7.16042 133.388 7.1824C133.334 7.20073 133.334 7.1824 133.334 7.1824Z" fill="white"/>
<path d="M142.969 11.2133C142.969 10.9164 142.783 10.7369 142.783 10.7369C142.783 10.7369 142.7 10.8945 142.539 11.1546C142.407 11.4111 142.167 11.8179 141.131 12.0121C139.772 12.2723 137.695 12.2137 137.406 12.133C137.084 12.0524 137.03 11.8509 137.03 11.5541C137.03 11.2572 137.695 10.2788 137.797 10.0187C137.934 9.78413 137.719 9.47998 137.533 9.46166C137.377 9.43967 136.868 9.2821 136.868 9.2821C136.868 9.2821 136.868 9.21981 136.898 9.08422C136.947 8.92665 136.79 8.78374 136.79 8.78374C136.79 8.78374 136.736 8.74709 136.922 8.68846C137.108 8.64815 137.641 8.48692 137.797 8.44661C137.934 8.40263 137.959 8.5089 137.959 8.56753C137.959 8.62616 138.198 8.46859 138.306 8.38431C138.413 8.30736 138.222 8.14979 138.007 8.02519C137.797 7.90793 137.504 7.92625 137.372 8.04718C137.235 8.16811 136.57 8.34767 136.301 8.40263L136.277 8.42462C135.93 8.52722 134.757 8.92665 134.547 9.0036C134.307 9.08422 133.72 8.96696 133.481 8.94864C133.241 8.93031 133.481 9.12819 133.481 9.18316C133.481 9.22347 133.589 9.32241 133.75 9.52762C133.882 9.70718 134.307 9.76581 134.366 9.72916C134.419 9.70718 134.444 9.60457 134.762 9.48731C135.055 9.36638 136.067 8.94864 136.282 8.86802H136.306C136.306 8.94864 136.306 9.04758 136.282 9.15018C136.145 9.46899 135.774 9.88674 134.952 10.7039C134.366 11.2829 133.779 11.7006 133.378 11.9608C133.007 12.1807 132.767 12.2979 132.767 12.2979C132.767 12.2979 132.821 12.4152 133.085 12.276C133.163 12.2576 133.246 12.2137 133.378 12.1367C133.696 11.9572 134.253 11.598 135.001 11.118C135.534 10.7809 135.959 10.3595 136.282 10.0406C136.521 9.78413 136.678 9.57892 136.678 9.57892C136.678 9.57892 136.732 9.65954 136.815 9.79879C136.893 9.96003 136.815 10.1762 136.653 10.8358C136.492 11.4954 136.492 11.8179 136.761 12.254C137.03 12.7157 139.821 12.8733 141.019 12.8183C142.241 12.756 142.773 12.3163 142.881 12.1367C143.091 11.8216 142.959 11.5394 142.959 11.2169" fill="white"/>
<path d="M133.173 8.90098C133.281 8.83868 133.334 8.76173 133.388 8.65912C133.437 8.47956 133.437 8.24138 133.388 7.94089C133.364 7.92257 133.364 7.88226 133.364 7.86394C133.227 7.32526 132.802 6.56672 132.67 6.42747C132.538 6.31021 132.112 5.92544 132.112 5.92544C132.513 5.62862 133.124 4.69052 133.286 4.51463C133.418 4.3314 133.31 4.30942 133.1 4.21414C132.909 4.11154 132.831 4.05291 132.675 3.95397C132.518 3.8367 132.171 3.91366 131.956 3.97229C131.741 4.0126 131.687 4.23246 131.687 4.23246C131.687 4.23246 131.663 4.30942 131.286 4.39004C130.886 4.47065 130.568 4.51463 130.514 4.52928C130.46 4.52928 130.274 4.56959 130.221 4.63189C130.172 4.69052 130.221 4.83343 130.221 4.83343C130.221 4.83343 130.754 5.15224 130.886 5.19255C131.017 5.23286 130.993 5.21454 131.203 5.0533C131.418 4.89207 131.448 4.91039 131.839 4.77114C132.24 4.63189 131.946 4.92871 132 4.99101C131.814 5.48937 131.629 5.74955 131.55 5.8888C131.467 6.00972 131.443 6.07202 131.389 6.24791C131.335 6.40548 131.575 6.44579 131.575 6.44579C131.575 6.44579 131.682 6.3835 131.76 6.32487C131.839 6.24791 131.922 6.32487 132.132 6.50809C132.342 6.70597 132.342 7.34725 132.372 7.60376C132.425 7.86394 132.186 7.82363 131.951 7.78332C131.712 7.74667 131.071 7.60376 131.071 7.60376V7.38389C131.071 7.22632 131.071 6.62535 131.047 6.2699C131.047 5.92544 130.939 5.8888 130.778 5.76787C130.646 5.64694 129.766 5.28783 129.766 5.28783C129.766 5.28783 129.58 5.34646 129.742 5.62862C129.903 5.92544 130.118 6.26624 130.299 7.16403C130.485 8.0838 130.485 9.47996 130.455 10.1176C130.455 10.7772 130.323 12.2503 130.323 12.5324C130.323 12.8146 130.641 13.1701 130.827 13.1298C131.013 13.0894 131.12 12.8879 131.12 12.6497C131.145 12.4335 131.12 11.8179 131.145 11.0337C131.174 10.2751 131.061 8.08014 131.061 8.08014C131.061 8.08014 131.037 7.94089 131.169 7.92257C131.296 7.90425 131.409 7.94089 131.511 8.00319C131.648 8.06548 131.966 8.34764 132.205 8.48323C132.474 8.6408 132.895 9.08054 133.159 8.90098" fill="white"/>
<path d="M43.7099 15.7022C43.6561 15.7095 43.5779 15.7132 43.4802 15.7278C43.3775 15.7388 43.2895 15.7682 43.2064 15.8158C43.138 15.8561 43.0842 15.9294 43.0549 16.0247C43.0207 16.1199 43.006 16.2702 43.006 16.4607V18.751H42.4927L39.9656 16.2775V17.7763C39.9656 17.9595 39.9802 18.1024 40.0096 18.2014C40.0389 18.3003 40.0878 18.3699 40.1562 18.4139C40.2051 18.4469 40.2882 18.4762 40.4006 18.5018C40.513 18.5312 40.601 18.5458 40.6646 18.5531V18.7327H38.9293V18.5531C39.0026 18.5495 39.0857 18.5385 39.1835 18.5202C39.2763 18.5018 39.3594 18.4762 39.4279 18.4432C39.5012 18.3956 39.555 18.3296 39.5794 18.2453C39.6038 18.1574 39.6185 18.0108 39.6185 17.8019V16.2885C39.6185 16.2116 39.6038 16.1419 39.5745 16.0686C39.5452 16.0063 39.5012 15.9477 39.4328 15.9001C39.3692 15.8488 39.291 15.8085 39.203 15.7792C39.1199 15.7535 39.0221 15.7278 38.9097 15.7132V15.5336H40.4348L42.6541 17.7067V16.4937C42.6541 16.2995 42.6394 16.1566 42.6052 16.0613C42.571 15.9697 42.5221 15.8964 42.4536 15.8524C42.3999 15.8195 42.3168 15.7901 42.2092 15.7608C42.1017 15.7352 42.0186 15.7205 41.9502 15.7095V15.5336H43.6952V15.7095L43.7099 15.7022Z" fill="white"/>
<path d="M48.6276 18.729H46.4083V18.5494C46.511 18.5421 46.6332 18.5238 46.775 18.5018C46.9167 18.4835 46.9851 18.4505 46.9851 18.4139C46.9851 18.4029 46.9851 18.3882 46.9851 18.3736C46.9803 18.3589 46.9754 18.3369 46.9607 18.3149L46.6136 17.6517H45.201C45.1667 17.714 45.1325 17.7836 45.0934 17.8679C45.0543 17.9485 45.0201 18.0254 44.9908 18.0914C44.9566 18.1757 44.9321 18.2343 44.9272 18.2746C44.9174 18.3113 44.9174 18.3369 44.9174 18.3516C44.9174 18.4029 44.9614 18.4432 45.0543 18.4762C45.1521 18.5091 45.3036 18.5348 45.5236 18.5494V18.729H43.8518V18.5494C43.9154 18.5421 43.9887 18.5385 44.0669 18.5238C44.1451 18.5128 44.2087 18.4908 44.2527 18.4725C44.3309 18.4358 44.3993 18.3919 44.4531 18.3406C44.502 18.2856 44.5508 18.2233 44.5899 18.15C44.805 17.7286 45.0299 17.3072 45.2547 16.8821C45.4747 16.457 45.724 15.988 45.9928 15.475H46.5648C46.9363 16.2005 47.2295 16.7722 47.4446 17.1936C47.6548 17.615 47.8357 17.9631 47.9872 18.238C48.0117 18.2819 48.0459 18.3259 48.085 18.3626C48.1241 18.3992 48.1779 18.4322 48.2463 18.4688C48.3001 18.4908 48.3587 18.5091 48.432 18.5201C48.5005 18.5348 48.564 18.5421 48.6227 18.5458V18.7253L48.6276 18.729ZM46.4963 17.4355L45.9049 16.2665L45.3183 17.4355H46.4963Z" fill="white"/>
<path d="M52.5918 16.4461H52.3621C52.3034 16.3105 52.2105 16.1639 52.0786 16.01C51.9466 15.8561 51.8293 15.7681 51.7217 15.7608C51.6582 15.7535 51.5849 15.7498 51.4969 15.7462C51.4089 15.7425 51.3307 15.7352 51.2622 15.7352H51.1303V18.238C51.1303 18.2929 51.1449 18.3406 51.1694 18.3809C51.1889 18.4249 51.2427 18.4542 51.316 18.4798C51.36 18.4908 51.4284 18.5055 51.5164 18.5201C51.6093 18.5348 51.6924 18.5458 51.7511 18.5531V18.7327H49.4878V18.5531C49.5465 18.5458 49.6198 18.5421 49.7225 18.5311C49.8251 18.5238 49.8887 18.5128 49.9278 18.5018C50.0011 18.4798 50.05 18.4469 50.0793 18.4065C50.1037 18.3626 50.1184 18.3186 50.1184 18.26V15.7315H49.9815C49.918 15.7315 49.8398 15.7388 49.7469 15.7425C49.6589 15.7498 49.5856 15.7535 49.5221 15.7571C49.4145 15.7681 49.2923 15.8561 49.1652 16.0063C49.0332 16.1602 48.9404 16.3068 48.8817 16.4424H48.652V15.5263H52.5869V16.4424L52.5918 16.4461Z" fill="white"/>
<path d="M55.6762 18.729H53.4325V18.5495C53.4863 18.5458 53.5596 18.5385 53.6574 18.5348C53.7601 18.5275 53.8285 18.5202 53.8627 18.5092C53.9311 18.4835 53.98 18.4542 54.0045 18.4175C54.0338 18.3809 54.0485 18.3333 54.0485 18.2783V16.0137C54.0485 15.9624 54.0338 15.9184 54.0093 15.8817C53.9849 15.8414 53.936 15.8121 53.8627 15.7865C53.8138 15.7718 53.7503 15.7572 53.6623 15.7388C53.5743 15.7242 53.4961 15.7132 53.4325 15.7095V15.53H55.6762V15.7095C55.6176 15.7132 55.5491 15.7205 55.4611 15.7278C55.378 15.7315 55.3047 15.7462 55.2461 15.7608C55.1727 15.7791 55.119 15.8121 55.0994 15.8488C55.075 15.8891 55.0603 15.9404 55.0603 15.9917V18.2526C55.0603 18.3113 55.075 18.3516 55.0994 18.3919C55.1239 18.4322 55.1727 18.4652 55.2461 18.4835C55.2852 18.4982 55.3536 18.5165 55.4465 18.5238C55.5393 18.5385 55.6176 18.5458 55.6762 18.5495V18.729Z" fill="white"/>
<path d="M60.2075 15.8891C60.4079 16.032 60.5692 16.2042 60.6865 16.4131C60.8038 16.6147 60.8625 16.8492 60.8625 17.113C60.8625 17.3439 60.8136 17.5638 60.711 17.7763C60.6132 17.9852 60.4665 18.1684 60.2808 18.3186C60.0804 18.4762 59.8506 18.5971 59.5818 18.6887C59.3129 18.7767 59.0001 18.8207 58.6286 18.8207C58.3304 18.8207 58.0518 18.784 57.7878 18.7071C57.5239 18.6301 57.2892 18.5165 57.0888 18.3699C56.8884 18.2307 56.732 18.0548 56.6147 17.8496C56.4974 17.6444 56.4387 17.4208 56.4387 17.168C56.4387 16.9042 56.4974 16.6696 56.6098 16.4571C56.7222 16.2446 56.8786 16.0613 57.079 15.9111C57.2795 15.7608 57.5141 15.6509 57.7829 15.5666C58.0518 15.4897 58.3402 15.4457 58.6481 15.4457C58.9561 15.4457 59.2396 15.4823 59.5085 15.563C59.7773 15.6436 60.0071 15.7499 60.2026 15.8891M59.4742 18.1721C59.5622 18.0328 59.6209 17.8789 59.66 17.7067C59.6991 17.5344 59.7187 17.3402 59.7187 17.124C59.7187 16.9408 59.704 16.7576 59.6698 16.5853C59.6356 16.4095 59.5769 16.2555 59.4987 16.1163C59.4156 15.977 59.3032 15.8708 59.1663 15.7902C59.0294 15.7059 58.8583 15.6656 58.653 15.6656C58.306 15.6656 58.042 15.7975 57.8612 16.054C57.6803 16.3105 57.5874 16.6733 57.5874 17.1423C57.5874 17.3439 57.607 17.5308 57.651 17.7103C57.6901 17.8862 57.7487 18.0401 57.8367 18.1721C57.9247 18.3113 58.0371 18.4139 58.1642 18.4835C58.2962 18.5605 58.4575 18.5971 58.653 18.5971C58.8486 18.5971 59.0099 18.5605 59.1467 18.4835C59.2787 18.4102 59.3911 18.304 59.4694 18.1757" fill="white"/>
<path d="M66.3226 15.7022C66.264 15.7095 66.1906 15.7132 66.0929 15.7278C65.9902 15.7388 65.9022 15.7682 65.8191 15.8158C65.7507 15.8561 65.6969 15.9294 65.6676 16.0247C65.6334 16.1199 65.6187 16.2702 65.6187 16.4607V18.751H65.1055L62.5734 16.2775V17.7763C62.5734 17.9595 62.5881 18.1024 62.6174 18.2014C62.6467 18.3003 62.6956 18.3699 62.7689 18.4139C62.8178 18.4469 62.9009 18.4762 63.0133 18.5018C63.1258 18.5312 63.2137 18.5458 63.2773 18.5531V18.7327H61.542V18.5531C61.6153 18.5495 61.6984 18.5385 61.7962 18.5202C61.8939 18.5018 61.9722 18.4762 62.0406 18.4432C62.1139 18.3956 62.1677 18.3296 62.1921 18.2453C62.2166 18.1574 62.2312 18.0108 62.2312 17.8019V16.2885C62.2312 16.2116 62.2166 16.1419 62.1872 16.0686C62.1579 16.0063 62.1139 15.9477 62.0455 15.9001C61.9819 15.8488 61.9037 15.8085 61.8206 15.7792C61.7375 15.7535 61.6398 15.7278 61.5273 15.7132V15.5336H63.0524L65.2717 17.7067V16.4937C65.2717 16.2995 65.257 16.1566 65.2228 16.0613C65.1886 15.9697 65.1397 15.8964 65.0712 15.8524C65.0175 15.8195 64.9344 15.7901 64.8268 15.7608C64.7193 15.7352 64.6362 15.7205 64.5678 15.7095V15.5336H66.3128V15.7095L66.3226 15.7022Z" fill="white"/>
<path d="M71.2401 18.729H69.0208V18.5494C69.1235 18.5421 69.2457 18.5238 69.3875 18.5018C69.5292 18.4835 69.6025 18.4505 69.6025 18.4139C69.6025 18.4029 69.6025 18.3882 69.5977 18.3736C69.5977 18.3589 69.5879 18.3369 69.5732 18.3149L69.2261 17.6517H67.8135C67.7793 17.714 67.745 17.7836 67.7059 17.8679C67.6668 17.9485 67.6326 18.0254 67.6033 18.0914C67.5691 18.1757 67.5495 18.2343 67.5397 18.2746C67.53 18.3113 67.53 18.3369 67.53 18.3516C67.53 18.4029 67.574 18.4432 67.6717 18.4762C67.7646 18.5091 67.921 18.5348 68.141 18.5494V18.729H66.4741V18.5494C66.5377 18.5421 66.611 18.5385 66.6892 18.5238C66.7674 18.5128 66.8309 18.4908 66.8749 18.4725C66.9532 18.4358 67.0216 18.3919 67.0754 18.3406C67.1242 18.2856 67.1731 18.2233 67.2073 18.15C67.4273 17.7286 67.6522 17.3072 67.8721 16.8821C68.0921 16.457 68.3414 15.988 68.6102 15.475H69.1822C69.5537 16.2005 69.8518 16.7722 70.062 17.1936C70.2722 17.615 70.4531 17.9631 70.5997 18.238C70.629 18.2819 70.6584 18.3259 70.6975 18.3626C70.7366 18.3992 70.7904 18.4322 70.8637 18.4688C70.9175 18.4908 70.9761 18.5091 71.0494 18.5201C71.1228 18.5348 71.1863 18.5421 71.2401 18.5458V18.7253V18.729ZM69.1088 17.4355L68.5174 16.2665L67.9308 17.4355H69.1088Z" fill="white"/>
<path d="M75.7178 17.703L75.6347 18.729H71.8952V18.5494C71.9637 18.5421 72.0419 18.5348 72.1299 18.5238C72.2227 18.5165 72.2765 18.5055 72.3058 18.4945C72.3743 18.4762 72.4232 18.4432 72.4476 18.4065C72.4769 18.3699 72.4916 18.3186 72.4916 18.2636V16.01C72.4916 15.955 72.4818 15.911 72.4574 15.8781C72.4378 15.8414 72.3889 15.8121 72.3058 15.7828C72.2472 15.7608 72.1787 15.7461 72.0908 15.7278C72.0077 15.7168 71.9392 15.7095 71.8904 15.7022V15.5226H74.1194V15.7022C74.0607 15.7058 73.9874 15.7132 73.9043 15.7205C73.8212 15.7242 73.7527 15.7388 73.6892 15.7535C73.6159 15.7718 73.567 15.8048 73.5425 15.8451C73.5132 15.8854 73.5034 15.933 73.5034 15.988V18.0914C73.5034 18.1903 73.5132 18.2673 73.5279 18.3223C73.5425 18.3809 73.5768 18.4249 73.6256 18.4505C73.6745 18.4835 73.7479 18.4981 73.8358 18.5055C73.9238 18.5128 74.046 18.5165 74.2025 18.5165C74.3589 18.5165 74.5006 18.5128 74.6473 18.4981C74.7939 18.4835 74.8966 18.4505 74.9552 18.4065C75.053 18.3296 75.1556 18.2233 75.2534 18.0841C75.3609 17.9448 75.4392 17.8202 75.4978 17.703H75.708H75.7178Z" fill="white"/>
<path d="M82.9228 16.3288C82.9228 16.512 82.8739 16.6623 82.781 16.7942C82.6833 16.9261 82.5562 17.0251 82.39 17.1093C82.214 17.1973 82.0233 17.2559 81.7985 17.2926C81.5834 17.3292 81.3341 17.3475 81.0555 17.3475H80.7231V18.249C80.7231 18.3003 80.7378 18.3479 80.7622 18.3882C80.7915 18.4285 80.8355 18.4615 80.9137 18.4872C80.9528 18.4982 81.0164 18.5128 81.0995 18.5238C81.1826 18.5385 81.2608 18.5495 81.3195 18.5531V18.7327H79.11V18.5531C79.1687 18.5458 79.242 18.5421 79.33 18.5311C79.4228 18.5238 79.4815 18.5128 79.5206 18.5018C79.5939 18.4798 79.6477 18.4505 79.6673 18.4139C79.6966 18.3772 79.7064 18.3333 79.7064 18.271V16.0173C79.7064 15.966 79.6917 15.9184 79.6673 15.8817C79.6428 15.8451 79.5939 15.8121 79.5157 15.7865C79.4668 15.7645 79.3984 15.7498 79.3055 15.7352C79.2127 15.7242 79.154 15.7168 79.1051 15.7095V15.53H81.3488C81.8718 15.53 82.2678 15.5959 82.5268 15.7315C82.781 15.8634 82.9179 16.065 82.9179 16.3325M81.8083 16.4387C81.8083 16.2006 81.7496 16.0247 81.6225 15.9074C81.5003 15.7938 81.2755 15.7315 80.9577 15.7315H80.7133V17.1277H80.8355C81.1533 17.1277 81.3928 17.0727 81.559 16.9591C81.7203 16.8455 81.8034 16.6733 81.8034 16.4387" fill="white"/>
<path d="M87.7818 18.729H85.5626V18.5494C85.6652 18.5421 85.7874 18.5238 85.9292 18.5018C86.0709 18.4835 86.1394 18.4505 86.1394 18.4139C86.1394 18.4029 86.1394 18.3882 86.1345 18.3736C86.1345 18.3589 86.1247 18.3369 86.1149 18.3149L85.7679 17.6517H84.3552C84.321 17.714 84.2868 17.7836 84.2477 17.8679C84.2037 17.9485 84.1743 18.0254 84.145 18.0914C84.1108 18.1757 84.0912 18.2343 84.0815 18.2746C84.0766 18.3113 84.0717 18.3369 84.0717 18.3516C84.0717 18.4029 84.1157 18.4432 84.2134 18.4762C84.3112 18.5091 84.4676 18.5348 84.6827 18.5494V18.729H83.011V18.5494C83.0745 18.5421 83.1478 18.5385 83.226 18.5238C83.3091 18.5128 83.3678 18.4908 83.4118 18.4725C83.49 18.4358 83.5535 18.3919 83.6122 18.3406C83.666 18.2856 83.71 18.2233 83.7442 18.15C83.9593 17.7286 84.189 17.3072 84.409 16.8821C84.6289 16.457 84.8782 15.988 85.1471 15.475H85.719C86.0954 16.2005 86.3887 16.7722 86.594 17.1936C86.8042 17.615 86.985 17.9631 87.1366 18.238C87.161 18.2819 87.1952 18.3259 87.2343 18.3626C87.2734 18.3992 87.3272 18.4322 87.3956 18.4688C87.4445 18.4908 87.5081 18.5091 87.5814 18.5201C87.6547 18.5348 87.7134 18.5421 87.772 18.5458V18.7253L87.7818 18.729ZM85.6457 17.4355L85.0542 16.2665L84.4676 17.4355H85.6457Z" fill="white"/>
<path d="M92.2592 17.703L92.1761 18.729H88.4367V18.5494C88.5051 18.5421 88.5833 18.5348 88.6713 18.5238C88.7642 18.5165 88.8179 18.5055 88.8473 18.4945C88.9206 18.4762 88.9646 18.4432 88.989 18.4065C89.0184 18.3699 89.033 18.3186 89.033 18.2636V16.01C89.033 15.955 89.0232 15.911 89.0037 15.8781C88.9841 15.8414 88.9304 15.8121 88.8522 15.7828C88.7935 15.7608 88.7251 15.7461 88.6371 15.7278C88.554 15.7168 88.4855 15.7095 88.4367 15.7022V15.5226H90.6657V15.7022C90.6021 15.7058 90.5337 15.7132 90.4506 15.7205C90.3675 15.7242 90.2991 15.7388 90.2355 15.7535C90.1622 15.7718 90.1084 15.8048 90.084 15.8451C90.0595 15.8854 90.0449 15.933 90.0449 15.988V18.0914C90.0449 18.1903 90.0498 18.2673 90.0742 18.3223C90.0938 18.3809 90.128 18.4249 90.172 18.4505C90.2208 18.4835 90.2893 18.4981 90.3821 18.5055C90.4652 18.5128 90.5923 18.5165 90.7488 18.5165C90.9052 18.5165 91.0469 18.5128 91.1936 18.4981C91.3402 18.4835 91.4429 18.4505 91.5064 18.4065C91.6042 18.3296 91.7068 18.2233 91.8046 18.0841C91.9073 17.9448 91.9855 17.8202 92.0441 17.703H92.2543H92.2592Z" fill="white"/>
<path d="M97.3676 18.729H95.1483V18.5494C95.251 18.5421 95.3732 18.5238 95.515 18.5018C95.6567 18.4835 95.7251 18.4505 95.7251 18.4139C95.7251 18.4029 95.7251 18.3882 95.7203 18.3736C95.7203 18.3589 95.7105 18.3369 95.7007 18.3149L95.3536 17.6517H93.941C93.9067 17.714 93.8725 17.7836 93.8334 17.8679C93.7943 17.9485 93.7601 18.0254 93.7308 18.0914C93.6966 18.1757 93.677 18.2343 93.6721 18.2746C93.6623 18.3113 93.6575 18.3369 93.6575 18.3516C93.6575 18.4029 93.7063 18.4432 93.7992 18.4762C93.897 18.5091 94.0534 18.5348 94.2685 18.5494V18.729H92.5967V18.5494C92.6652 18.5421 92.7336 18.5385 92.8118 18.5238C92.89 18.5128 92.9536 18.4908 92.9976 18.4725C93.0806 18.4358 93.1442 18.3919 93.198 18.3406C93.2517 18.2856 93.3006 18.2233 93.3348 18.15C93.5548 17.7286 93.7797 17.3072 93.9996 16.8821C94.2196 16.457 94.4689 15.988 94.7377 15.475H95.3048C95.686 16.2005 95.9793 16.7722 96.1895 17.1936C96.3997 17.615 96.5806 17.9631 96.7272 18.238C96.7517 18.2819 96.781 18.3259 96.8201 18.3626C96.8592 18.3992 96.913 18.4322 96.9814 18.4688C97.0352 18.4908 97.0987 18.5091 97.1672 18.5201C97.2356 18.5348 97.2991 18.5421 97.3578 18.5458V18.7253L97.3676 18.729ZM95.2363 17.4355L94.6449 16.2665L94.0534 17.4355H95.2314H95.2363Z" fill="white"/>
<path d="M99.8114 18.8133C99.5083 18.8133 99.2297 18.7767 98.9706 18.6997C98.7067 18.6228 98.4769 18.5165 98.2863 18.3663C98.0957 18.227 97.949 18.0548 97.8366 17.8459C97.729 17.6371 97.6753 17.4099 97.6753 17.1607C97.6753 16.9115 97.7242 16.6843 97.8415 16.4718C97.9539 16.2629 98.1054 16.076 98.3107 15.9258C98.5014 15.7718 98.736 15.6546 99.0146 15.574C99.2884 15.4933 99.5768 15.4494 99.8896 15.4494C100.119 15.4494 100.325 15.4714 100.51 15.5117C100.696 15.552 100.853 15.6033 100.98 15.6546L101.161 15.5337H101.405L101.434 16.699H101.175C101.033 16.3472 100.862 16.0833 100.667 15.9184C100.462 15.7535 100.217 15.6692 99.9287 15.6692C99.567 15.6692 99.2933 15.7938 99.1075 16.043C98.9218 16.2885 98.824 16.6367 98.824 17.0874C98.824 17.3439 98.8582 17.5564 98.9218 17.7397C98.9853 17.9192 99.0684 18.0658 99.1711 18.1721C99.2884 18.2893 99.4155 18.3736 99.567 18.4249C99.7185 18.4799 99.8847 18.5055 100.066 18.5055C100.339 18.5055 100.579 18.4506 100.784 18.3333C100.994 18.2197 101.185 18.0438 101.351 17.8129L101.6 17.9302C101.517 18.0621 101.424 18.1794 101.317 18.2857C101.214 18.3883 101.092 18.4799 100.955 18.5532C100.804 18.6374 100.633 18.6997 100.452 18.751C100.271 18.7987 100.051 18.817 99.8065 18.817" fill="white"/>
<path d="M106.327 16.3471H106.098C106.044 16.2225 105.946 16.1016 105.809 15.977C105.677 15.8561 105.54 15.7754 105.408 15.7571C105.35 15.7461 105.277 15.7425 105.174 15.7351C105.071 15.7351 104.988 15.7278 104.92 15.7278H104.333V16.9591H104.744C104.851 16.9591 104.949 16.9481 105.027 16.9297C105.115 16.9114 105.193 16.8748 105.262 16.8161C105.311 16.7795 105.35 16.7172 105.389 16.6329C105.433 16.545 105.462 16.468 105.477 16.4057H105.707V17.7432H105.477C105.462 17.6773 105.438 17.6003 105.389 17.5014C105.35 17.4098 105.306 17.3438 105.262 17.3072C105.198 17.2522 105.125 17.2156 105.042 17.1936C104.959 17.1753 104.856 17.1606 104.744 17.1606H104.333V18.084C104.333 18.183 104.338 18.2563 104.358 18.3112C104.372 18.3662 104.406 18.4138 104.46 18.4432C104.509 18.4725 104.568 18.4908 104.656 18.4981C104.744 18.5091 104.856 18.5091 104.993 18.5091H105.237C105.33 18.5091 105.413 18.5055 105.482 18.4945C105.56 18.4871 105.633 18.4725 105.707 18.4615C105.775 18.4432 105.824 18.4248 105.863 18.3955C105.956 18.3222 106.059 18.2086 106.171 18.0584C106.283 17.9118 106.357 17.7946 106.396 17.7213H106.601L106.528 18.718H102.715V18.5384C102.769 18.5311 102.847 18.5274 102.935 18.5164C103.028 18.5091 103.091 18.4981 103.131 18.4871C103.204 18.4651 103.253 18.4322 103.282 18.3955C103.302 18.3589 103.316 18.3149 103.316 18.2563V16.0026C103.316 15.9477 103.307 15.9037 103.287 15.8707C103.263 15.8341 103.214 15.8048 103.135 15.7754C103.087 15.7571 103.018 15.7388 102.925 15.7241C102.837 15.7095 102.764 15.7021 102.715 15.6948V15.5153H106.323V16.3324L106.327 16.3471Z" fill="white"/>
<path d="M115.732 18.729H113.537V18.5494C113.601 18.5458 113.679 18.5348 113.772 18.5238C113.87 18.5164 113.933 18.5055 113.968 18.4908C114.036 18.4651 114.085 18.4358 114.119 18.3992C114.149 18.3589 114.163 18.3076 114.163 18.2489V15.8634L112.77 18.674H112.408C112.394 18.6227 112.35 18.5238 112.281 18.3772C112.218 18.2306 112.164 18.1134 112.115 18.0254L111.089 15.8267V17.7689C111.089 17.9521 111.103 18.095 111.137 18.194C111.167 18.2929 111.216 18.3589 111.284 18.4065C111.328 18.4395 111.416 18.4688 111.533 18.4945C111.656 18.5238 111.744 18.5421 111.792 18.5458V18.7253H110.057V18.5458C110.106 18.5421 110.184 18.5311 110.292 18.5128C110.399 18.4981 110.487 18.4688 110.561 18.4322C110.634 18.3919 110.688 18.3186 110.712 18.216C110.741 18.117 110.756 17.9741 110.756 17.7909V16.2078C110.756 16.1126 110.741 16.0319 110.707 15.966C110.678 15.9037 110.634 15.8524 110.57 15.8157C110.497 15.7718 110.414 15.7388 110.336 15.7241C110.253 15.7131 110.174 15.7058 110.091 15.6985V15.5189H111.968L112.961 17.626L113.811 15.911C113.841 15.8487 113.865 15.7754 113.894 15.6875C113.924 15.5995 113.933 15.5446 113.933 15.5153H115.742V15.6948C115.678 15.6948 115.62 15.7058 115.551 15.7095C115.483 15.7205 115.419 15.7351 115.361 15.7461C115.287 15.7644 115.234 15.7974 115.209 15.8341C115.185 15.8817 115.17 15.9293 115.17 15.977V18.238C115.17 18.2966 115.185 18.3369 115.209 18.3772C115.234 18.4138 115.283 18.4432 115.356 18.4688C115.395 18.4835 115.454 18.4981 115.542 18.5091C115.63 18.5201 115.693 18.5311 115.742 18.5348V18.7143L115.732 18.729Z" fill="white"/>
<path d="M121.456 15.7132C121.402 15.7205 121.319 15.7278 121.217 15.7425C121.114 15.7571 121.026 15.7828 120.953 15.8231C120.879 15.8598 120.826 15.9257 120.801 16.0247C120.772 16.1199 120.752 16.2702 120.752 16.4644V17.6517C120.752 17.9998 120.601 18.282 120.303 18.4945C120 18.707 119.599 18.8133 119.1 18.8133C118.523 18.8133 118.079 18.7107 117.756 18.5055C117.443 18.3003 117.282 18.0145 117.282 17.648V16.0173C117.282 15.966 117.267 15.9184 117.243 15.8854C117.218 15.8488 117.169 15.8158 117.091 15.7828C117.042 15.7645 116.984 15.7462 116.905 15.7352C116.832 15.7242 116.773 15.7168 116.729 15.7095V15.53H118.851V15.7095C118.792 15.7095 118.734 15.7168 118.665 15.7242C118.602 15.7352 118.533 15.7425 118.474 15.7608C118.401 15.7791 118.352 15.8084 118.328 15.8488C118.303 15.8891 118.294 15.9367 118.294 15.988V17.5967C118.294 17.9155 118.377 18.1427 118.562 18.2893C118.743 18.4322 118.998 18.5018 119.335 18.5018C119.672 18.5018 119.931 18.4212 120.122 18.2636C120.308 18.1061 120.405 17.8715 120.405 17.5637V16.4827C120.405 16.2885 120.391 16.1492 120.356 16.0503C120.317 15.955 120.268 15.8854 120.2 15.8451C120.151 15.8158 120.063 15.7828 119.941 15.7571C119.819 15.7278 119.731 15.7132 119.687 15.7095V15.5263H121.451V15.7095L121.456 15.7132Z" fill="white"/>
<path d="M130.48 16.3471H130.255C130.196 16.2225 130.104 16.1016 129.972 15.977C129.835 15.8561 129.703 15.7754 129.571 15.7571C129.517 15.7461 129.439 15.7425 129.331 15.7351C129.233 15.7351 129.15 15.7278 129.087 15.7278H128.495V16.9591H128.906C129.013 16.9591 129.106 16.9481 129.194 16.9297C129.277 16.9114 129.356 16.8748 129.424 16.8161C129.468 16.7795 129.512 16.7172 129.556 16.6329C129.595 16.545 129.629 16.468 129.639 16.4057H129.869V17.7432H129.639C129.629 17.6773 129.595 17.6003 129.556 17.5014C129.507 17.4098 129.468 17.3438 129.424 17.3072C129.361 17.2522 129.287 17.2156 129.199 17.1936C129.116 17.1753 129.018 17.1606 128.906 17.1606H128.495V18.084C128.495 18.183 128.505 18.2563 128.525 18.3112C128.539 18.3662 128.574 18.4138 128.622 18.4432C128.671 18.4725 128.74 18.4908 128.823 18.4981C128.906 18.5091 129.023 18.5091 129.16 18.5091H129.405C129.497 18.5091 129.581 18.5055 129.649 18.4945C129.732 18.4871 129.805 18.4725 129.874 18.4615C129.942 18.4432 129.996 18.4248 130.03 18.3955C130.123 18.3222 130.226 18.2086 130.338 18.0584C130.456 17.9118 130.529 17.7946 130.563 17.7213H130.773L130.695 18.718H126.887V18.5384C126.941 18.5311 127.014 18.5274 127.107 18.5164C127.2 18.5091 127.264 18.4981 127.303 18.4871C127.376 18.4651 127.425 18.4322 127.449 18.3955C127.474 18.3589 127.488 18.3149 127.488 18.2563V16.0026C127.488 15.9477 127.474 15.9037 127.454 15.8707C127.435 15.8341 127.381 15.8048 127.303 15.7754C127.254 15.7571 127.185 15.7388 127.092 15.7241C127.004 15.7095 126.936 15.7021 126.887 15.6948V15.5153H130.49V16.3324L130.48 16.3471Z" fill="white"/>
<path d="M136.292 15.7132C136.238 15.7205 136.16 15.7278 136.052 15.7425C135.945 15.7571 135.857 15.7828 135.788 15.8231C135.715 15.8598 135.661 15.9257 135.632 16.0247C135.607 16.1199 135.588 16.2702 135.588 16.4644V17.6517C135.588 17.9998 135.436 18.282 135.138 18.4945C134.835 18.707 134.434 18.8133 133.936 18.8133C133.364 18.8133 132.914 18.7107 132.601 18.5055C132.279 18.3003 132.122 18.0145 132.122 17.648V16.0173C132.122 15.966 132.107 15.9184 132.083 15.8854C132.054 15.8488 132.01 15.8158 131.936 15.7828C131.887 15.7645 131.824 15.7462 131.751 15.7352C131.682 15.7242 131.624 15.7168 131.575 15.7095V15.53H133.696V15.7095C133.637 15.7095 133.579 15.7168 133.51 15.7242C133.447 15.7352 133.383 15.7425 133.325 15.7608C133.246 15.7791 133.198 15.8084 133.173 15.8488C133.149 15.8891 133.134 15.9367 133.134 15.988V17.5967C133.134 17.9155 133.227 18.1427 133.403 18.2893C133.579 18.4322 133.838 18.5018 134.175 18.5018C134.512 18.5018 134.776 18.4212 134.962 18.2636C135.153 18.1061 135.251 17.8715 135.251 17.5637V16.4827C135.251 16.2885 135.236 16.1492 135.202 16.0503C135.167 15.955 135.119 15.8854 135.05 15.8451C134.996 15.8158 134.908 15.7828 134.786 15.7571C134.664 15.7278 134.576 15.7132 134.532 15.7095V15.5263H136.297V15.7095L136.292 15.7132Z" fill="white"/>
<path d="M142.7 18.729H140.505V18.5494C140.569 18.5458 140.647 18.5348 140.745 18.5238C140.838 18.5164 140.901 18.5055 140.936 18.4908C141.004 18.4651 141.053 18.4358 141.087 18.3992C141.116 18.3589 141.131 18.3076 141.131 18.2489V15.8634L139.738 18.674H139.376C139.362 18.6227 139.318 18.5238 139.254 18.3772C139.186 18.2306 139.127 18.1134 139.093 18.0254L138.061 15.8267V17.7689C138.061 17.9521 138.076 18.095 138.11 18.194C138.139 18.2929 138.188 18.3589 138.257 18.4065C138.306 18.4395 138.389 18.4688 138.511 18.4945C138.628 18.5238 138.711 18.5421 138.765 18.5458V18.7253H137.03V18.5458C137.079 18.5421 137.157 18.5311 137.264 18.5128C137.372 18.4981 137.46 18.4688 137.533 18.4322C137.607 18.3919 137.66 18.3186 137.685 18.216C137.714 18.117 137.729 17.9741 137.729 17.7909V16.2078C137.729 16.1126 137.714 16.0319 137.68 15.966C137.651 15.9037 137.607 15.8524 137.543 15.8157C137.47 15.7718 137.387 15.7388 137.308 15.7241C137.23 15.7131 137.147 15.7058 137.064 15.6985V15.5189H138.941L139.933 17.626L140.779 15.911C140.808 15.8487 140.838 15.7754 140.862 15.6875C140.892 15.5995 140.901 15.5446 140.901 15.5153H142.71V15.6948C142.646 15.6948 142.588 15.7058 142.519 15.7095C142.451 15.7205 142.387 15.7351 142.329 15.7461C142.255 15.7644 142.202 15.7974 142.177 15.8341C142.148 15.8817 142.143 15.9293 142.143 15.977V18.238C142.143 18.2966 142.148 18.3369 142.177 18.3772C142.202 18.4138 142.25 18.4432 142.319 18.4688C142.363 18.4835 142.422 18.4981 142.51 18.5091C142.597 18.5201 142.661 18.5311 142.71 18.5348V18.7143L142.7 18.729Z" fill="white"/>
<path d="M124.154 18.8133C123.905 18.8133 123.675 18.7913 123.46 18.74C123.25 18.6887 123.064 18.6337 122.913 18.5641L122.717 18.7217H122.478L122.434 17.5637H122.683C122.737 17.67 122.81 17.7909 122.893 17.9082C122.976 18.0291 123.079 18.139 123.191 18.2343C123.309 18.3332 123.436 18.4175 123.578 18.4762C123.719 18.5421 123.89 18.5751 124.081 18.5751C124.34 18.5751 124.541 18.5238 124.673 18.4249C124.814 18.3259 124.883 18.2013 124.883 18.0474C124.883 17.9228 124.819 17.8166 124.707 17.7359C124.589 17.648 124.409 17.5747 124.164 17.5161C124.008 17.4758 123.856 17.4355 123.724 17.3988C123.587 17.3658 123.46 17.3292 123.348 17.2925C123.074 17.2046 122.874 17.0837 122.742 16.9224C122.61 16.7649 122.546 16.5853 122.546 16.3874C122.546 16.2628 122.58 16.1456 122.649 16.0283C122.717 15.9147 122.815 15.8084 122.947 15.7205C123.074 15.6362 123.235 15.5629 123.431 15.508C123.626 15.453 123.842 15.4273 124.071 15.4273C124.301 15.4273 124.506 15.4493 124.702 15.5006C124.902 15.5519 125.054 15.6032 125.166 15.6509L125.342 15.5153H125.587L125.606 16.6036H125.357C125.303 16.4864 125.235 16.3691 125.156 16.2445C125.083 16.1199 125 16.021 124.912 15.9367C124.819 15.8524 124.712 15.7791 124.589 15.7278C124.467 15.6765 124.325 15.6509 124.164 15.6509C123.954 15.6509 123.788 15.6985 123.661 15.7901C123.529 15.8854 123.465 15.9953 123.465 16.1309C123.465 16.2555 123.524 16.3618 123.636 16.4461C123.754 16.523 123.925 16.5963 124.169 16.6586C124.311 16.6952 124.453 16.7319 124.599 16.7722C124.746 16.8088 124.878 16.8455 124.99 16.8821C125.264 16.9627 125.479 17.08 125.621 17.2302C125.763 17.3805 125.841 17.5637 125.841 17.7836C125.841 17.9228 125.797 18.0547 125.714 18.183C125.636 18.3149 125.523 18.4212 125.381 18.5055C125.23 18.6008 125.054 18.6704 124.853 18.7217C124.653 18.773 124.418 18.7986 124.154 18.7986" fill="white"/>
<path d="M30.4826 11.4258C30.4826 17.7323 23.6587 22.8515 15.2413 22.8515C6.82388 22.8515 0 17.7323 0 11.4258C0 5.11924 6.82388 0 15.2413 0C23.6587 0 30.4826 5.11558 30.4826 11.4258Z" fill="#7D0000"/>
<path d="M10.0157 4.14817H5.53818V7.50847H10.0157V4.14817ZM8.52485 6.39081H7.02907V5.27315H8.52485V6.39081Z" fill="white"/>
<path d="M20.4669 7.50847H24.9445V4.14817H20.4669V7.50847ZM23.4487 6.39081H21.9578V5.27315H23.4487V6.39081Z" fill="white"/>
<path d="M20.4669 18.6997H24.9445V15.3394H20.4669V18.6997ZM21.9627 16.4644H23.4536V17.582H21.9627V16.4644Z" fill="white"/>
<path d="M5.53818 18.6997H10.0157V15.3394H5.53818V18.6997ZM7.02907 16.4644H8.52485V17.582H7.02907V16.4644Z" fill="white"/>
<path d="M17.4803 17.582H15.9894V5.26949H17.4803V7.50847H18.9712V4.14817H11.507V7.50847H13.0027V5.26949H14.4936V17.582H13.0027V15.3394H11.507V18.6997H18.9712V15.3394H17.4803V17.582Z" fill="white"/>
<path d="M13.0024 8.62981H5.53818V11.9828H10.0157V10.8651H7.02907V9.74746H11.5115V13.1041H5.53818V14.2218H13.0024V8.62981Z" fill="white"/>
<path d="M20.4667 10.8651V11.9828H24.9443V8.62981H17.4801V14.2218H24.9443V13.1041H18.9709V9.75113H23.4485V10.8651H20.4667Z" fill="white"/>
</svg>
